<svg width="128" height="152" viewBox="0 0 128 152" fill="none" xmlns="http://www.w3.org/2000/svg">
<path fill-rule="evenodd" clip-rule="evenodd" d="M84.0283 62.0077C84.6317 62.4697 85.2338 62.9307 85.9221 63.475L85.92 63.4744C86.0788 63.6433 86.2073 63.843 86.2785 64.0642C85.9872 64.0697 85.6919 63.9838 85.4505 63.8205C84.8503 63.3681 84.2552 62.9088 83.6603 62.4496C83.4168 62.2616 83.1733 62.0737 82.9296 61.8863C81.876 61.0637 80.4377 59.9816 79.1272 59.0959C77.3878 57.9043 75.6963 56.9455 73.8159 56.3841C73.1186 56.1639 72.4129 55.9667 71.6917 55.8415C71.0425 55.7203 70.5442 55.6658 69.7706 55.7371C69.2456 55.8018 68.1115 55.999 67.3515 56.203C67.2601 56.2287 67.1683 56.2527 67.0764 56.2766C66.9135 56.3191 66.7505 56.3615 66.5904 56.4136C66.1714 56.5433 65.7597 56.6939 65.3496 56.8496C64.1937 57.3482 63.0748 58.0639 62.2643 58.7312C60.3247 60.3951 58.7935 62.0513 57.8164 64.4031C57.4554 65.2203 57.0368 66.9596 56.8476 68.1263C56.5774 69.6303 56.4698 70.8063 56.4048 72.363C56.3193 74.1381 56.3745 75.9155 56.5262 77.6851C56.5784 78.3792 56.6159 78.8427 56.7313 79.4192C56.7547 79.5412 56.7837 79.6621 56.8126 79.783C56.8515 79.9451 56.8903 80.1072 56.9158 80.2716C56.956 80.5505 56.943 80.836 56.8858 81.1116C56.6894 80.9067 56.5257 80.6668 56.4245 80.401C56.367 80.26 56.3345 80.1113 56.302 79.9629C56.2888 79.903 56.2757 79.8431 56.261 79.7838C56.132 79.2524 56.0743 78.708 56.0209 78.1649C55.8983 76.7266 55.8059 75.2866 55.8075 73.8428C55.8345 72.571 55.8799 71.2988 56.0009 70.0316C56.0893 69.3074 56.1944 68.5851 56.3183 67.8662C56.5513 66.5932 56.8134 65.3124 57.3192 64.1154C57.8915 62.7078 58.7657 61.4423 59.7773 60.3148C60.2938 59.7419 60.8597 59.2179 61.4252 58.6943C61.4841 58.6397 61.543 58.5852 61.6018 58.5307C62.4665 57.796 63.4162 57.1661 64.4211 56.6399C65.9548 55.9027 67.6195 55.4778 69.2971 55.2239C69.9905 55.1033 70.703 55.0895 71.3979 55.2077C72.1239 55.3152 72.8404 55.4791 73.542 55.6931C75.024 56.1141 76.4428 56.7379 77.7631 57.5314C79.4506 58.5465 81.0407 59.7157 82.6043 60.9098C83.1057 61.3014 83.5674 61.6548 84.0283 62.0077ZM68.3091 58.1015C68.4151 58.0797 68.521 58.058 68.6268 58.0359L68.6259 58.0364C68.649 58.0322 68.6719 58.0279 68.6945 58.0237C69.2845 57.9145 69.7095 57.8357 70.2759 58.1604C70.0204 58.3194 69.732 58.4192 69.4403 58.4885C69.3209 58.5122 69.2003 58.5304 69.0796 58.5486C68.9606 58.5665 68.8414 58.5845 68.7232 58.6077C68.4332 58.6616 68.1451 58.7252 67.8571 58.7888C67.7049 58.8224 67.5528 58.8559 67.4004 58.8881C66.586 59.1103 65.7946 59.4027 65.0083 59.7089C64.3904 59.9396 64.058 60.1183 63.5836 60.3862C63.294 60.5402 63.0055 60.6983 62.7379 60.8894C62.1949 61.2654 61.4598 62.1432 61.1795 62.6443C61.1542 62.6877 61.1289 62.7311 61.1035 62.7745C60.9048 63.1144 60.7058 63.4549 60.5446 63.8143C60.3303 64.3361 60.1331 64.8655 59.9434 65.3965C59.7996 65.8145 59.6587 66.584 59.5334 67.2688C59.5095 67.3992 59.4862 67.5266 59.4635 67.6479C59.4073 68.0149 59.3418 68.3812 59.2762 68.7476C59.1183 69.6296 58.9603 70.5125 58.9321 71.4086C58.9289 71.4872 58.9269 71.5642 58.9251 71.6399C58.9131 72.1214 58.9024 72.5475 58.5511 72.9569C58.3402 72.6457 58.2933 72.2554 58.3376 71.8888C58.3407 71.8065 58.3435 71.7242 58.3464 71.6418C58.3595 71.266 58.3725 70.8902 58.4107 70.5159C58.4994 69.8267 58.6185 69.1415 58.7375 68.4568C58.7631 68.3096 58.7886 68.1624 58.8139 68.0152C58.9379 67.2621 59.0795 66.5114 59.2393 65.7652C59.353 65.293 59.5231 64.8382 59.7 64.3871C59.7261 64.3184 59.7517 64.2494 59.7774 64.1804C59.8603 63.9572 59.9432 63.7339 60.0424 63.5169C60.1467 63.2859 60.2721 63.0654 60.3974 62.845C60.4324 62.7835 60.4674 62.7219 60.5019 62.6602C60.8939 61.9415 61.4012 61.2925 62.0082 60.7421C62.4036 60.3623 62.8868 60.1038 63.3674 59.8466C63.5078 59.7715 63.648 59.6965 63.7857 59.6186C64.1798 59.4019 64.5999 59.2422 65.0193 59.0829C65.112 59.0476 65.2046 59.0124 65.2969 58.9766C65.885 58.7536 66.4766 58.543 67.0837 58.378C67.4877 58.2698 67.8987 58.1855 68.3091 58.1015Z" fill="#FB9649"/>
<g clip-path="url(#clip0_755_2961)">
<path d="M57.1778 81.4564C57.557 80.8996 57.9808 80.197 58.2309 79.8259C58.4461 79.4986 58.6581 79.1688 58.8695 78.839C58.9426 78.7079 59.0545 78.5944 59.0964 78.4487C59.1618 78.0617 58.6664 77.9702 58.5493 78.2647C58.5474 78.268 58.5461 78.2713 58.5442 78.2746C58.426 78.4602 58.3055 78.6444 58.1878 78.83C57.8027 79.4254 57.3074 80.1863 56.8228 80.9508C56.8136 80.946 56.8044 80.9413 56.7952 80.9366C56.6105 80.8382 56.4351 80.7221 56.2603 80.6066C55.758 80.2815 54.9029 79.6096 54.2219 79.1156C53.9403 78.9132 53.85 78.8551 53.7016 78.7602C53.6476 78.7328 53.5963 78.6972 53.5419 78.6709C53.5028 78.6462 53.4571 78.6326 53.4108 78.6355C53.2921 78.6398 53.1933 78.7535 53.2019 78.8742C53.2089 78.9349 53.2308 78.992 53.2782 79.0321C53.2771 79.0316 53.2754 79.0291 53.2726 79.0256C53.2905 79.0446 53.3099 79.0625 53.3283 79.0816C53.426 79.1828 53.5325 79.274 53.64 79.364C54.0825 79.7263 54.5386 80.0714 54.9946 80.4164C55.3746 80.7062 55.7656 80.9803 56.1657 81.2406C56.4566 81.4084 56.8688 81.7626 57.1772 81.4559L57.1778 81.4564Z" fill="#FB9649"/>
</g>
<g clip-path="url(#clip1_755_2961)">
<path d="M86.603 64.1858C86.5712 63.5129 86.4873 62.6966 86.464 62.2498C86.4392 61.8588 86.4102 61.4679 86.3809 61.0773C86.3604 60.9285 86.3816 60.7706 86.3275 60.6289C86.147 60.2804 85.6961 60.5051 85.7797 60.8109C85.7802 60.8147 85.7811 60.8181 85.7815 60.8219C85.7987 61.0413 85.8132 61.2609 85.8307 61.4799C85.881 62.1873 85.9428 63.0931 86.0153 63.9953C86.0051 63.997 85.9949 63.9988 85.9847 64.0005C85.778 64.0329 85.5681 64.0457 85.3589 64.0585C84.7621 64.1008 83.6749 64.0781 82.8336 64.0928C82.4869 64.1004 82.3798 64.1083 82.2042 64.1218C82.1446 64.1323 82.0822 64.1347 82.0229 64.1464C81.9768 64.1502 81.9321 64.1669 81.8969 64.197C81.8046 64.2719 81.794 64.4221 81.8735 64.5133C81.9156 64.5576 81.9674 64.5901 82.0294 64.5936C82.0283 64.5939 82.0254 64.5929 82.021 64.5918C82.0467 64.5962 82.073 64.5989 82.0992 64.603C82.2382 64.6252 82.378 64.6339 82.518 64.6412C83.0895 64.6647 83.6614 64.6661 84.2332 64.6676C84.7111 64.6706 85.1884 64.6546 85.6645 64.622C85.9978 64.5811 86.5402 64.6162 86.6022 64.1858L86.603 64.1858Z" fill="#FB9649"/>
</g>
<path d="M91.2482 80.4026C91.1785 80.4241 91.1096 80.4472 91.0414 80.4726C90.6402 80.6077 90.2934 80.8517 89.9459 81.0871C89.5574 81.3468 89.1695 81.6076 88.7824 81.8686C87.5503 82.7001 86.3241 83.5407 85.1024 84.3878C82.3118 86.3254 79.5526 88.3088 76.8259 90.3353C76.2168 89.4456 75.5987 88.5619 74.9844 87.6753C73.6242 85.7223 72.2829 83.7564 70.9656 81.7739C70.5646 81.1795 70.1608 80.5874 69.7636 79.99C69.5712 79.7122 69.3994 79.4182 69.1921 79.151C68.9794 78.8959 68.7234 78.6769 68.4369 78.5089C68.4876 78.8971 68.6121 79.2768 68.8171 79.6113C69.0802 80.0116 69.3465 80.4101 69.6125 80.8081C70.3882 81.9489 71.1464 83.1018 71.9187 84.2452C73.3747 86.4075 74.8761 88.5387 76.3495 90.6888C75.9321 90.9999 75.5157 91.3126 75.1001 91.6255C73.7566 92.672 72.3734 93.6714 71.0886 94.7904C70.4975 95.3109 69.9221 95.8515 69.4142 96.4545C69.0935 96.8209 68.7896 97.2055 68.5606 97.6364C68.3259 98.0963 68.0824 98.5877 68.1046 99.116C68.1393 99.5356 68.3708 99.9222 68.6597 100.219C68.9645 100.504 69.3498 100.705 69.7499 100.82C70.8372 101.125 71.9844 100.947 73.0795 100.766C74.294 100.576 75.5173 100.323 76.6339 99.7924C77.5498 99.3879 78.3357 98.7126 78.8473 97.8504C79.024 97.5629 79.2129 97.2809 79.3548 96.9739C79.6122 96.387 79.7382 95.7161 79.5472 95.0922C79.1718 93.7023 78.2716 92.5389 77.5097 91.3422C77.3856 91.1575 77.2603 90.9743 77.1352 90.7902C80.2784 88.4427 83.4463 86.1295 86.6421 83.8538C87.6238 83.1557 88.6079 82.4604 89.5958 81.7706C90.0523 81.432 90.5589 81.1548 90.9694 80.7581C91.075 80.654 91.1744 80.5438 91.2687 80.4296C91.2811 80.4148 91.2932 80.3995 91.3055 80.3848C91.2864 80.3902 91.2676 80.3962 91.2487 80.4023L91.2482 80.4026ZM76.909 91.5071C77.3577 92.1962 77.8223 92.8754 78.2408 93.5834C78.4769 93.9923 78.7681 94.5209 78.9548 95.1543C79.2638 96.0526 78.8152 96.902 78.2358 97.7686C77.5804 98.7291 76.892 99.1391 75.8248 99.56C74.7852 99.9456 73.9943 100.088 72.8672 100.271C71.4913 100.519 70.0388 100.621 69.1811 99.9852C68.7865 99.6927 68.5713 99.2536 68.6213 98.9142C68.6636 98.5737 68.8363 98.2128 69.0682 97.7796C69.2792 97.3862 69.8586 96.7127 70.3169 96.2313C71.1249 95.3974 72.1867 94.5496 73.2495 93.7338C74.1126 93.075 74.9721 92.4114 75.8414 91.7609C76.1145 91.5559 76.388 91.3515 76.6617 91.1463C76.7438 91.2669 76.8266 91.3873 76.9088 91.5079L76.909 91.5071Z" fill="#FB9649"/>
<g clip-path="url(#clip2_755_2961)">
<path d="M91.2867 80.0536C90.6188 79.9653 89.8007 79.9027 89.3568 79.8462C88.9677 79.8011 88.5778 79.7601 88.1882 79.7196C88.0381 79.7132 87.8865 79.6643 87.7375 79.6924C87.3625 79.8081 87.5034 80.2917 87.8192 80.2638C87.823 80.264 87.8265 80.2638 87.8303 80.2639C88.0493 80.2861 88.2679 80.3108 88.4866 80.3325C89.1917 80.4088 90.094 80.509 90.9947 80.5981C90.9946 80.6084 90.9945 80.6187 90.9944 80.6291C90.9896 80.8383 90.9648 81.0471 90.9402 81.2552C90.8757 81.8501 90.6601 82.9159 90.5251 83.7464C90.4709 84.0889 90.4596 84.1957 90.4417 84.371C90.4414 84.4315 90.4327 84.4933 90.4336 84.5537C90.4292 84.5998 90.4377 84.6467 90.4611 84.6868C90.5183 84.7909 90.6642 84.828 90.7681 84.766C90.8192 84.7324 90.8604 84.6872 90.8749 84.6268C90.875 84.628 90.8735 84.6307 90.8716 84.6348C90.8806 84.6102 90.8878 84.5849 90.8966 84.5598C90.943 84.427 90.9766 84.2909 91.0086 84.1545C91.1333 83.5963 91.2364 83.0338 91.3395 82.4713C91.4274 82.0016 91.4965 81.529 91.5491 81.0547C91.5681 80.7194 91.6991 80.1919 91.2865 80.0543L91.2867 80.0536Z" fill="#FB9649"/>
</g>
<g clip-path="url(#clip3_755_2961)">
<path d="M68.1213 78.5828C67.9718 79.2397 67.8342 80.0486 67.7371 80.4854C67.6564 80.8687 67.5796 81.2532 67.5034 81.6374C67.4833 81.7863 67.4206 81.9327 67.4348 82.0837C67.5155 82.4678 68.01 82.3719 68.0114 82.0549C68.0119 82.0512 68.012 82.0476 68.0125 82.0438C68.0547 81.8279 68.0995 81.6124 68.1412 81.3967C68.2821 80.7016 68.4649 79.8124 68.6366 78.9236C68.6468 78.9247 68.6571 78.9258 68.6674 78.9268C68.8753 78.9509 69.0809 78.9948 69.2859 79.0384C69.8723 79.1574 70.9138 79.4702 71.7283 79.6812C72.0643 79.7666 72.1696 79.7877 72.3425 79.8217C72.4027 79.8275 72.4635 79.8419 72.5237 79.8465C72.5692 79.8552 72.6167 79.8511 72.6587 79.8315C72.7677 79.7841 72.8181 79.6422 72.7659 79.533C72.7372 79.479 72.696 79.4339 72.6372 79.4139C72.6383 79.4139 72.6409 79.4157 72.6448 79.4179C72.6212 79.4067 72.5966 79.3971 72.5725 79.3861C72.4445 79.3276 72.312 79.2817 72.1791 79.2372C71.6348 79.0617 71.0842 78.9072 70.5335 78.7528C70.0739 78.622 69.6098 78.5097 69.1422 78.4137C68.8102 78.3639 68.297 78.1849 68.122 78.583L68.1213 78.5828Z" fill="#FB9649"/>
</g>
<defs>
<clipPath id="clip0_755_2961">
<rect width="3.36" height="5.92" fill="white" transform="translate(59.0839 78.0732) rotate(86.3861)"/>
</clipPath>
<clipPath id="clip1_755_2961">
<rect width="3.36" height="5.92" fill="white" transform="translate(86.0916 60.3364) rotate(49.4226)"/>
</clipPath>
<clipPath id="clip2_755_2961">
<rect width="3.36" height="5.92" fill="white" transform="translate(87.4078 79.8726) rotate(-30.337)"/>
</clipPath>
<clipPath id="clip3_755_2961">
<rect width="3.36" height="5.92" fill="white" transform="translate(67.5838 82.4285) rotate(-115.054)"/>
</clipPath>
</defs>
</svg>
