<svg width="125" height="125" viewBox="0 0 125 125" fill="none" xmlns="http://www.w3.org/2000/svg">
<path fill-rule="evenodd" clip-rule="evenodd" d="M82.0136 92.8434C81.9272 92.4251 81.7342 92.0441 81.5417 91.6643C81.4683 91.5193 81.3949 91.3744 81.3276 91.2278C80.89 90.3439 80.4332 89.468 79.9627 88.601C78.8791 86.5979 77.7419 84.6236 76.5501 82.6821L76.4816 82.574C75.606 81.1919 74.7279 79.8058 73.6649 78.5574C72.5437 77.2461 71.3912 75.9387 70.0191 74.8819C69.212 74.2942 68.3384 73.8019 67.4368 73.3751C66.4686 72.9036 65.458 72.5185 64.4001 72.3063C62.6409 71.9845 60.8336 71.8892 59.0536 72.0702C58.4232 72.1406 57.8087 72.2963 57.1942 72.4521L57.1942 72.4521L57.194 72.4522C56.9141 72.5231 56.6341 72.5941 56.3527 72.657C56.1855 72.6902 56.0297 72.7248 55.8839 72.7572C55.5126 72.8396 55.2057 72.9077 54.9381 72.902C54.8341 72.8992 54.7809 72.9006 54.7476 72.9015C54.7264 72.902 54.7133 72.9024 54.7003 72.9013C54.6795 72.8995 54.6591 72.894 54.6059 72.8796C54.5809 72.8729 54.5488 72.8643 54.5062 72.8532C54.4837 72.8411 54.4629 72.8283 54.4453 72.8171C54.4204 72.7947 54.3972 72.7707 54.3763 72.7451L54.3669 72.7315C54.3585 72.7193 54.3498 72.7064 54.3411 72.693C54.3242 72.6674 54.309 72.6394 54.297 72.6162C54.2866 72.5833 54.2786 72.5505 54.2721 72.5177L54.2707 72.4806C54.266 72.3623 54.265 72.3355 54.2691 72.3095C54.2732 72.2834 54.2825 72.2581 54.2986 72.1422C54.3699 71.7635 54.4853 71.3937 54.6256 71.0342C54.8003 70.6115 55.0119 70.2048 55.2523 69.8165C55.4393 69.5108 55.6469 69.2186 55.8546 68.9262L55.8547 68.9261C55.9478 68.795 56.041 68.6639 56.1323 68.5315C56.6444 67.859 57.857 66.3499 58.6761 65.4396C59.7677 64.2523 60.8897 63.0946 62.0198 61.9442C64.1204 59.8058 66.2723 57.7202 68.4466 55.657C68.5841 55.5258 68.7217 55.3946 68.8593 55.2635L68.8594 55.2634C71.0277 53.1957 73.1982 51.1259 75.2157 48.9096C76.1101 47.9336 76.9556 46.9073 77.689 45.804C78.0874 45.2043 78.3758 44.5425 78.6627 43.8842L78.6868 43.8289C79.1027 42.885 79.4642 41.8515 79.2719 40.8083C79.0907 39.8772 78.698 38.9461 77.9398 38.3408C76.6615 37.244 74.92 36.9886 73.2962 36.8413C70.0271 36.662 66.8317 37.6435 63.811 38.7956C60.7855 39.9701 57.8747 41.4111 54.9686 42.8506C54.5469 43.0533 54.1349 43.2541 53.7295 43.4516L53.7287 43.452C51.1726 44.6975 48.8799 45.8146 46.0917 46.4869C45.4257 46.6359 44.9809 46.6999 44.5121 46.7359C44.1698 46.7632 43.8252 46.7744 43.4838 46.7327C43.4421 46.7255 43.3908 46.7175 43.3628 46.7135C43.2137 46.6879 43.067 46.6535 42.9204 46.6158C42.8282 46.5934 42.7368 46.5686 42.6463 46.5422C42.6014 46.5294 42.5557 46.5158 42.5116 46.5014C42.4635 46.4861 42.4155 46.4685 42.3682 46.4501C42.3634 46.4481 42.3587 46.4462 42.354 46.4442C42.3379 46.4376 42.322 46.4309 42.3065 46.4229C42.2438 46.3958 42.1854 46.3608 42.127 46.3258L42.1269 46.3258L42.1005 46.31C42.062 46.286 42.0251 46.2596 41.9883 46.2332C41.949 46.2011 41.9097 46.1683 41.8721 46.1339C41.844 46.1067 41.8176 46.0778 41.7927 46.049C41.7751 46.0226 41.7583 45.9954 41.7446 45.9666C41.7318 45.9426 41.7214 45.9178 41.711 45.893L41.711 45.8929C41.6902 45.8366 41.6714 45.7796 41.6527 45.7228L41.6527 45.7227C41.6352 45.6697 41.6177 45.6168 41.5988 45.5647C41.1916 44.5439 41.4617 43.5367 42.03 42.5856C42.8907 41.1862 44.508 39.8764 45.8184 38.894C46.5702 38.34 47.334 37.8012 48.1202 37.2968C48.2609 37.2054 48.4068 37.1226 48.5527 37.0399L48.5528 37.0399C48.7401 36.9337 48.9274 36.8275 49.1036 36.7028C49.2398 36.6083 49.3745 36.5107 49.5059 36.409L49.5257 36.3929C49.6337 36.3047 49.7718 36.1919 49.9106 36.2408C49.9235 36.1856 49.8866 36.1376 49.8433 36.1079C49.7095 36.0415 49.5548 36.0359 49.4081 36.0423C48.8567 36.0647 48.347 36.2953 47.8894 36.5915C47.5607 36.7892 47.244 37.0052 46.9272 37.2213C46.7899 37.315 46.6525 37.4087 46.5141 37.501L46.3781 37.5986C44.821 38.7166 43.2366 39.8542 42.0147 41.3455C41.2045 42.3262 40.5577 43.5463 40.6306 44.8497C40.6491 45.1636 40.7196 45.471 40.823 45.768C40.8402 45.8204 40.8565 45.8735 40.8728 45.9267C40.9322 46.1208 40.9922 46.3169 41.1035 46.4877C41.5443 47.1226 42.3193 47.3684 43.0422 47.5245C44.1266 47.7431 45.2406 47.5445 46.3097 47.3276C48.5858 46.8072 50.7305 45.8537 52.8351 44.8633C53.9315 44.3426 55.02 43.8076 56.1029 43.2753C59.1372 41.784 62.1278 40.3141 65.1254 39.2391C67.9249 38.2488 70.4655 37.5522 73.2914 37.7011C73.9107 37.7452 74.0852 37.7769 74.6262 37.8751C74.6845 37.8857 74.7471 37.8971 74.815 37.9093C75.3087 37.9942 75.7976 38.1167 76.2608 38.3096C77.148 38.6947 78.0007 39.3312 78.2845 40.4128C78.6435 41.4584 78.4584 42.1917 77.9735 43.3926C77.8581 43.6616 77.7419 43.9306 77.6257 44.1996C77.5319 44.4054 77.4317 44.6087 77.3275 44.8089C77.1007 45.2436 76.8266 45.6511 76.5429 46.0498C74.5541 48.7299 71.4236 51.724 68.6732 54.3546L68.6701 54.3575C68.4046 54.6115 68.1427 54.8621 67.8856 55.1086C65.6736 57.2102 63.4832 59.335 61.3482 61.515C59.5946 63.3028 57.8426 65.0985 56.2942 67.0704C56.2372 67.1439 56.18 67.2175 56.1228 67.2912L56.1197 67.2951C55.1772 68.5077 54.2143 69.7464 53.7191 71.2151C53.7133 71.2345 53.7074 71.2539 53.7014 71.2733L53.6854 71.3257C53.5344 71.8189 53.3728 72.3468 53.5212 72.854C53.8201 73.6794 54.5663 73.8083 55.3549 73.6978C55.8313 73.6386 56.2998 73.5326 56.768 73.4267L56.7681 73.4267C56.8575 73.4065 56.9469 73.3862 57.0363 73.3663C57.2059 73.328 57.3751 73.2875 57.5443 73.247L57.5445 73.2469C58.0249 73.132 58.5056 73.0169 58.9951 72.95C60.5892 72.7787 62.6401 72.8772 63.8391 73.1005C65.107 73.3087 65.9605 73.6538 66.9487 74.1181C67.8511 74.5424 68.7255 75.0324 69.535 75.616C69.6625 75.719 69.7901 75.8226 69.9171 75.9258L69.9862 75.9819C70.3789 76.3246 70.7524 76.6888 71.1227 77.0555C71.8055 77.756 72.4499 78.4918 73.0846 79.2364C73.9045 80.1931 74.8166 81.5589 75.6853 82.8791C76.8691 84.6452 78.0128 86.4394 79.0555 88.2928C79.8088 89.6185 80.5133 90.9724 81.1801 92.3438C81.3837 92.8065 81.7019 93.2141 82.0825 93.5455C82.0841 93.3109 82.0577 93.0771 82.012 92.8474L82.0136 92.8434ZM74.7797 42.2407C74.6603 41.8059 74.4198 41.4112 74.1457 41.0566C73.8356 40.5962 73.3787 40.2223 72.8337 40.0846C72.4058 39.9966 71.9634 39.9758 71.5274 39.9654C70.9287 39.9798 70.3292 40.0582 69.7433 40.1807C69.3685 40.2719 68.9999 40.3861 68.6313 40.5003L68.6311 40.5003C68.2685 40.6127 67.9058 40.7251 67.5369 40.8156C67.0563 40.9486 66.5727 41.0709 66.0892 41.1931C65.4665 41.3506 64.844 41.508 64.2277 41.6882C63.6535 41.8862 63.0925 42.119 62.5313 42.3518C62.2984 42.4485 62.0654 42.5452 61.8314 42.6394C61.648 42.7163 61.464 42.7921 61.2801 42.8679C60.8743 43.0352 60.4684 43.2025 60.0674 43.3815L60.0099 43.4064C59.6519 43.5613 59.2912 43.7174 58.9854 43.9636C58.7586 44.1565 58.5599 44.3815 58.3948 44.6289C58.9939 44.5955 59.2015 44.5401 59.7111 44.4042L59.7244 44.4007C59.9484 44.3196 60.1663 44.2219 60.3843 44.1241C60.5428 44.053 60.7014 43.9819 60.8624 43.9171C61.0692 43.8321 61.2757 43.7469 61.4822 43.6616C61.873 43.5003 62.2636 43.339 62.6553 43.1798C62.8487 43.1037 63.0412 43.0245 63.2337 42.9451C63.7489 42.7329 64.2646 42.5205 64.8008 42.3696C65.2662 42.2464 65.733 42.1281 66.1999 42.0098C67.2589 41.7415 68.3181 41.4732 69.361 41.147C69.927 40.9555 70.2574 40.9182 70.9789 40.8367L71.0313 40.8308C71.5881 40.7727 71.7889 40.7953 72.2888 40.8516C72.3484 40.8583 72.4123 40.8655 72.4815 40.8731C72.5035 40.8755 72.5261 40.8779 72.5492 40.8804L72.5563 40.8821C72.8066 40.9417 72.9011 40.9641 73.2425 41.2679C73.4172 41.4801 73.5823 41.7019 73.7322 41.9324C73.7351 41.9375 73.7382 41.9427 73.7413 41.948L73.7459 41.9559L73.7462 41.9564C73.7507 41.9639 73.7551 41.9715 73.7594 41.9789C73.7609 41.9819 73.7626 41.9851 73.7643 41.9883C73.7655 41.9905 73.7667 41.9928 73.7679 41.995C73.7686 41.9963 73.7692 41.9976 73.7698 41.9989C73.7722 42.0036 73.7743 42.0076 73.776 42.011L73.7762 42.0115C73.779 42.0168 73.7809 42.0205 73.7819 42.0229C73.8532 42.163 73.9165 42.3063 73.9598 42.4576C74.0367 42.9796 74.0279 43.0517 73.9654 43.4936C73.9638 43.5817 73.745 44.1133 73.5318 44.4655C73.2721 44.9451 73.0069 45.3942 72.5364 46.0115C72.1594 46.4782 71.7537 46.9206 71.3481 47.363L71.348 47.3631L71.3477 47.3634C71.1912 47.5341 71.0346 47.7048 70.8798 47.8769C70.2426 48.559 69.6263 49.2611 69.0164 49.9673C68.7227 50.2749 68.4271 50.5809 68.1314 50.8869L68.131 50.8873L68.1307 50.8877C67.7288 51.3036 67.3269 51.7196 66.9294 52.1401C66.8519 52.2271 66.7704 52.3105 66.689 52.3938C66.5794 52.506 66.4698 52.6181 66.37 52.7389C66.1849 52.9895 66.0382 53.2681 65.9404 53.5644C65.9172 53.6324 65.8964 53.7021 65.8779 53.7717C65.93 53.7613 65.9821 53.7493 66.0334 53.7357C66.2715 53.6765 66.4991 53.5836 66.7106 53.4603C67.0259 53.2645 67.0912 53.1961 67.2342 53.0462C67.2959 52.9816 67.372 52.9019 67.4889 52.7902C67.6559 52.6216 67.8216 52.4519 67.9873 52.2823L67.9881 52.2815L67.9892 52.2804C68.1179 52.1486 68.2467 52.0168 68.3761 51.8855C68.8441 51.4099 69.3122 50.9344 69.773 50.4524C70.3881 49.7161 71.0381 49.0104 71.6875 48.3052L71.6876 48.3051L71.8512 48.1275C71.9723 47.9916 72.0944 47.8566 72.2166 47.7215C72.548 47.3551 72.8797 46.9885 73.1912 46.6047C73.5719 46.1148 73.8989 45.5848 74.2042 45.0452C74.2212 45.0145 74.2382 44.9839 74.2552 44.9532L74.2553 44.9531C74.5052 44.503 74.7608 44.0429 74.8366 43.5272C74.8815 43.1005 74.8847 42.6586 74.7797 42.2407ZM69.5518 78.3317C69.9725 78.7465 70.3468 79.206 70.6898 79.6864H70.6914C71.0673 80.1347 71.331 80.6655 71.4168 81.2475C71.1114 81.121 70.8205 80.9537 70.568 80.74C70.3315 80.5263 70.1363 80.2751 69.9411 80.0237C69.8255 79.8748 69.7098 79.7259 69.5854 79.5847C69.0693 78.949 68.2398 78.2997 67.3774 77.628C66.366 76.8795 65.7593 76.4559 64.7246 75.9764C63.936 75.6545 63.1353 75.5104 62.071 75.3799L61.9913 75.3709C60.9322 75.251 60.377 75.1881 59.2876 75.3311C58.7015 75.4001 58.1654 75.5477 57.589 75.7064C57.136 75.8312 56.6581 75.9627 56.1114 76.0684C55.5504 76.1853 54.9798 76.267 54.4059 76.2077C54.2781 76.1963 54.1495 76.1887 54.0207 76.1811C53.6901 76.1615 53.3588 76.1419 53.0387 76.0572C51.9391 75.777 51.3388 75.0133 51.4181 73.8692C51.443 72.9933 51.6016 72.1279 51.8333 71.2841C52.1058 70.3185 52.4696 69.3802 52.9265 68.4859C52.9604 68.4179 52.994 68.3499 53.0275 68.2822C53.4835 67.3592 53.9169 66.4822 54.9854 66.1346C54.8652 66.486 54.7289 66.8319 54.5534 67.1593C54.4529 67.3593 54.3412 67.5265 54.2541 67.657C54.1877 67.7564 54.1356 67.8345 54.1134 67.8895C53.6526 68.7445 53.215 69.6188 52.8936 70.5363C52.5393 71.5306 52.3125 72.3937 52.2244 73.6146C52.1659 74.4392 52.2612 74.8699 52.8952 75.1494C53.2086 75.2999 53.4578 75.3199 53.99 75.3535C54.1728 75.3601 54.3096 75.369 54.425 75.3765C54.7023 75.3945 54.857 75.4045 55.2338 75.3559C55.9026 75.272 56.5292 75.1 57.1931 74.9178C57.7385 74.7681 58.3091 74.6115 58.9486 74.4913C59.9672 74.3191 61.0019 74.3544 62.0229 74.4865C62.8452 74.5745 63.6667 74.7058 64.4585 74.9484C65.5532 75.2693 66.4997 75.9352 67.4259 76.5871C67.5189 76.6525 67.6117 76.7178 67.7044 76.7826C67.8404 76.8921 67.9773 77.0007 68.1142 77.1092C68.6076 77.5004 69.1013 77.8918 69.5518 78.3317Z" fill="#FB9649"/>
<g clip-path="url(#clip0_755_2958)">
<path d="M82.4229 93.5682C82.702 92.7365 82.9854 91.7064 83.168 91.1532C83.3224 90.667 83.4718 90.1788 83.6205 89.691C83.6659 89.5007 83.7661 89.3191 83.7673 89.1217C83.7128 88.6136 83.0596 88.6735 83.0167 89.084C83.0155 89.0888 83.0149 89.0934 83.0137 89.0982C82.931 89.3726 82.845 89.6458 82.7629 89.92C82.4901 90.8021 82.1375 91.9305 81.7997 93.0596C81.7865 93.0569 81.7733 93.0542 81.7602 93.0515C81.4939 92.9932 81.2332 92.9097 80.9733 92.8265C80.2291 92.5961 78.9204 92.0555 77.8926 91.6763C77.4683 91.5219 77.3346 91.4809 77.115 91.4144C77.0378 91.399 76.9609 91.3725 76.8835 91.3587C76.8257 91.3416 76.7636 91.3407 76.7066 91.3606C76.5593 91.4079 76.4756 91.5852 76.529 91.7334C76.5592 91.8071 76.6067 91.8709 76.6803 91.9045C76.6788 91.9043 76.6757 91.9017 76.6709 91.8982C76.7001 91.9158 76.7307 91.9314 76.7605 91.9488C76.9187 92.0413 77.0843 92.1179 77.2508 92.1928C77.9332 92.491 78.6265 92.7627 79.3198 93.0344C79.8982 93.2636 80.485 93.4694 81.0783 93.6546C81.502 93.7623 82.1436 94.0608 82.4221 93.5677L82.4229 93.5682Z" fill="#FB9649"/>
</g>
<g clip-path="url(#clip1_755_2958)">
<path d="M50.0202 35.5462C49.1748 35.3121 48.1309 35.0843 47.5687 34.9315C47.075 34.8034 46.5795 34.6804 46.0844 34.558C45.892 34.5229 45.7053 34.4325 45.5081 34.4419C45.0037 34.5236 45.0985 35.1727 45.5107 35.1935C45.5155 35.1944 45.5201 35.1947 45.525 35.1957C45.8034 35.2636 46.0809 35.3349 46.359 35.4022C47.2545 35.6273 48.4002 35.9189 49.5457 36.1958C49.5437 36.2091 49.5417 36.2224 49.5397 36.2357C49.4958 36.5047 49.4264 36.7695 49.3572 37.0335C49.1671 37.789 48.6973 39.1247 48.3737 40.1714C48.2423 40.6033 48.2085 40.739 48.1538 40.9618C48.1426 41.0398 48.1203 41.118 48.1106 41.1961C48.0966 41.2546 48.099 41.3167 48.122 41.3726C48.1771 41.5171 48.3586 41.5912 48.5038 41.5299C48.5757 41.4959 48.637 41.445 48.6665 41.3697C48.6664 41.3712 48.6639 41.3744 48.6608 41.3794C48.6768 41.3493 48.6907 41.3179 48.7065 41.2872C48.7903 41.1243 48.858 40.9548 48.9239 40.7846C49.1851 40.0872 49.4192 39.3803 49.6534 38.6735C49.8513 38.0836 50.0253 37.4866 50.1785 36.8843C50.2633 36.4554 50.5271 35.7987 50.0198 35.5471L50.0202 35.5462Z" fill="#FB9649"/>
</g>
<defs>
<clipPath id="clip0_755_2958">
<rect width="4.375" height="7.70833" fill="white" transform="translate(83.6188 88.6553) rotate(70.6743)"/>
</clipPath>
<clipPath id="clip1_755_2958">
<rect width="4.375" height="7.70833" fill="white" transform="translate(45.0504 34.615) rotate(-22.3962)"/>
</clipPath>
</defs>
</svg>
