<svg width="144" height="152" viewBox="0 0 144 152" fill="none" xmlns="http://www.w3.org/2000/svg">
<path fill-rule="evenodd" clip-rule="evenodd" d="M84.0284 62.008C84.6318 62.47 85.2339 62.931 85.9222 63.4752L85.92 63.4747C86.0788 63.6436 86.2073 63.8432 86.2786 64.0645C85.9873 64.0699 85.692 63.984 85.4505 63.8208C84.8504 63.3684 84.2553 62.909 83.6603 62.4498C83.4169 62.2619 83.1734 62.074 82.9296 61.8866C81.8761 61.0639 80.4378 59.9818 79.1273 59.0961C77.3878 57.9045 75.6963 56.9458 73.816 56.3843C73.1187 56.1642 72.413 55.967 71.6918 55.8417C71.0426 55.7205 70.5443 55.666 69.7707 55.7373C69.2457 55.802 68.1116 55.9993 67.3515 56.2033C67.2602 56.229 67.1683 56.2529 67.0764 56.2768C66.9135 56.3193 66.7506 56.3618 66.5905 56.4139C66.1715 56.5435 65.7597 56.6942 65.3497 56.8498C64.1938 57.3485 63.0748 58.0642 62.2644 58.7314C60.3248 60.3953 58.7935 62.0516 57.8164 64.4033C57.4555 65.2206 57.0369 66.9598 56.8476 68.1265C56.5774 69.6306 56.4699 70.8065 56.4049 72.3633C56.3194 74.1384 56.3746 75.9157 56.5263 77.6854C56.5785 78.3794 56.616 78.843 56.7313 79.4195C56.7547 79.5414 56.7837 79.6623 56.8127 79.7833C56.8515 79.9453 56.8904 80.1074 56.9158 80.2719C56.956 80.5507 56.943 80.8362 56.8859 81.1118C56.6895 80.907 56.5257 80.667 56.4245 80.4012C56.3671 80.2602 56.3345 80.1116 56.302 79.9631C56.2889 79.9032 56.2758 79.8434 56.2611 79.784C56.1321 79.2526 56.0744 78.7083 56.0209 78.1651C55.8984 76.7269 55.806 75.2868 55.8076 73.843C55.8346 72.5712 55.88 71.299 56.001 70.0318C56.0894 69.3077 56.1944 68.5853 56.3184 67.8664C56.5513 66.5934 56.8135 65.3126 57.3193 64.1157C57.8915 62.708 58.7657 61.4425 59.7773 60.3151C60.2939 59.7422 60.8598 59.2181 61.4253 58.6945C61.4842 58.64 61.543 58.5855 61.6018 58.5309C62.4665 57.7963 63.4162 57.1663 64.4211 56.6402C65.9549 55.903 67.6196 55.4781 69.2971 55.2241C69.9906 55.1036 70.703 55.0897 71.398 55.2079C72.1239 55.3154 72.8405 55.4794 73.5421 55.6934C75.024 56.1144 76.4429 56.7381 77.7632 57.5317C79.4506 58.5468 81.0407 59.716 82.6044 60.91C83.1057 61.3016 83.5674 61.6551 84.0284 62.008ZM68.3091 58.1017C68.4151 58.08 68.5211 58.0583 68.6269 58.0361L68.626 58.0367C68.6491 58.0324 68.672 58.0282 68.6946 58.024C69.2845 57.9147 69.7095 57.836 70.276 58.1607C70.0205 58.3196 69.7321 58.4195 69.4404 58.4888C69.321 58.5124 69.2004 58.5306 69.0797 58.5488C68.9606 58.5668 68.8415 58.5848 68.7233 58.608C68.4332 58.6619 68.1452 58.7255 67.8572 58.789C67.705 58.8226 67.5529 58.8562 67.4005 58.8883C66.5861 59.1105 65.7947 59.4029 65.0084 59.7092C64.3905 59.9398 64.0581 60.1185 63.5836 60.3864C63.294 60.5404 63.0056 60.6985 62.738 60.8897C62.195 61.2656 61.4598 62.1434 61.1796 62.6445C61.1543 62.6879 61.1289 62.7313 61.1035 62.7747C60.9049 63.1147 60.7059 63.4552 60.5446 63.8145C60.3304 64.3363 60.1331 64.8657 59.9434 65.3968C59.7996 65.8147 59.6588 66.5842 59.5334 67.269C59.5096 67.3995 59.4862 67.5269 59.4636 67.6482C59.4074 68.0151 59.3418 68.3814 59.2762 68.7478C59.1184 69.6298 58.9603 70.5128 58.9322 71.4089C58.9289 71.4874 58.927 71.5645 58.9251 71.6402C58.9131 72.1216 58.9025 72.5477 58.5511 72.9571C58.3402 72.646 58.2933 72.2557 58.3376 71.8891C58.3407 71.8067 58.3436 71.7244 58.3465 71.6421C58.3595 71.2663 58.3726 70.8904 58.4108 70.5162C58.4995 69.8269 58.6186 69.1417 58.7375 68.457C58.7631 68.3098 58.7887 68.1626 58.814 68.0154C58.938 67.2623 59.0796 66.5116 59.2394 65.7654C59.3531 65.2933 59.5231 64.8384 59.7001 64.3874C59.7262 64.3186 59.7518 64.2496 59.7774 64.1807C59.8603 63.9574 59.9433 63.7341 60.0425 63.5172C60.1467 63.2861 60.2721 63.0656 60.3974 62.8453C60.4324 62.7837 60.4674 62.7222 60.502 62.6604C60.894 61.9417 61.4013 61.2927 62.0082 60.7423C62.4037 60.3625 62.8868 60.104 63.3675 59.8468C63.5079 59.7717 63.6481 59.6967 63.7858 59.6188C64.1798 59.4021 64.6 59.2425 65.0194 59.0831C65.112 59.0479 65.2047 59.0127 65.297 58.9769C65.885 58.7539 66.4766 58.5432 67.0838 58.3782C67.4878 58.27 67.8988 58.1858 68.3091 58.1017Z" fill="#FB9649"/>
<g clip-path="url(#clip0_755_2960)">
<path d="M57.1779 81.4567C57.5571 80.8999 57.9809 80.1972 58.231 79.8262C58.4462 79.4988 58.6582 79.1691 58.8696 78.8393C58.9428 78.7081 59.0546 78.5947 59.0966 78.449C59.1619 78.062 58.6665 77.9704 58.5494 78.265C58.5476 78.2683 58.5462 78.2716 58.5443 78.2749C58.4261 78.4605 58.3057 78.6446 58.1879 78.8302C57.8028 79.4257 57.3075 80.1866 56.8229 80.951C56.8137 80.9463 56.8045 80.9416 56.7954 80.9368C56.6106 80.8384 56.4353 80.7224 56.2604 80.6069C55.7581 80.2818 54.9031 79.6099 54.222 79.1158C53.9405 78.9134 53.8502 78.8553 53.7017 78.7605C53.6477 78.733 53.5964 78.6975 53.5421 78.6711C53.5029 78.6465 53.4572 78.6329 53.4109 78.6358C53.2922 78.6401 53.1934 78.7537 53.2021 78.8744C53.209 78.9352 53.2309 78.9923 53.2783 79.0324C53.2773 79.0319 53.2755 79.0293 53.2727 79.0258C53.2906 79.0449 53.31 79.0628 53.3284 79.0818C53.4262 79.1831 53.5327 79.2742 53.6401 79.3642C54.0826 79.7266 54.5387 80.0716 54.9947 80.4167C55.3747 80.7064 55.7657 80.9806 56.1658 81.2409C56.4567 81.4086 56.8689 81.7628 57.1773 81.4562L57.1779 81.4567Z" fill="#FB9649"/>
</g>
<g clip-path="url(#clip1_755_2960)">
<path d="M86.603 64.1858C86.5712 63.5129 86.4873 62.6966 86.464 62.2498C86.4392 61.8588 86.4102 61.4679 86.3809 61.0773C86.3604 60.9285 86.3816 60.7706 86.3275 60.6289C86.147 60.2804 85.6961 60.5051 85.7797 60.8109C85.7802 60.8147 85.7811 60.8181 85.7815 60.8219C85.7987 61.0413 85.8132 61.2609 85.8307 61.4799C85.881 62.1873 85.9428 63.0931 86.0153 63.9953C86.0051 63.997 85.9949 63.9988 85.9847 64.0005C85.778 64.0329 85.5681 64.0457 85.3589 64.0585C84.7621 64.1008 83.6749 64.0781 82.8336 64.0928C82.4869 64.1004 82.3798 64.1083 82.2042 64.1218C82.1446 64.1323 82.0822 64.1347 82.0229 64.1464C81.9768 64.1502 81.9321 64.1669 81.8969 64.197C81.8046 64.2719 81.794 64.4221 81.8735 64.5133C81.9156 64.5576 81.9674 64.5901 82.0294 64.5936C82.0283 64.5939 82.0254 64.5929 82.021 64.5918C82.0467 64.5962 82.073 64.5989 82.0992 64.603C82.2382 64.6252 82.378 64.6339 82.518 64.6412C83.0895 64.6647 83.6614 64.6661 84.2332 64.6676C84.7111 64.6706 85.1884 64.6546 85.6645 64.622C85.9978 64.5811 86.5402 64.6162 86.6022 64.1858L86.603 64.1858Z" fill="#FB9649"/>
</g>
<path d="M91.2483 80.4028C91.1785 80.4243 91.1097 80.4474 91.0415 80.4729C90.6402 80.608 90.2935 80.852 89.9459 81.0873C89.5574 81.3471 89.1695 81.6078 88.7825 81.8688C87.5503 82.7003 86.3242 83.541 85.1024 84.388C82.3119 86.3256 79.5527 88.309 76.826 90.3355C76.2169 89.4459 75.5987 88.5621 74.9844 87.6755C73.6242 85.7226 72.283 83.7566 70.9656 81.7741C70.5647 81.1797 70.1608 80.5876 69.7637 79.9903C69.5712 79.7124 69.3994 79.4185 69.1922 79.1512C68.9795 78.8961 68.7235 78.6772 68.437 78.5091C68.4877 78.8974 68.6121 79.277 68.8171 79.6116C69.0803 80.0119 69.3466 80.4103 69.6126 80.8083C70.3882 81.9491 71.1465 83.102 71.9188 84.2454C73.3748 86.4077 74.8762 88.5389 76.3495 90.6891C75.9322 91.0002 75.5158 91.3129 75.1001 91.6258C73.7567 92.6723 72.3735 93.6716 71.0886 94.7906C70.4975 95.3111 69.9222 95.8517 69.4142 96.4547C69.0936 96.8212 68.7897 97.2057 68.5607 97.6366C68.326 98.0965 68.0824 98.5879 68.1046 99.1162C68.1393 99.5359 68.3709 99.9225 68.6598 100.219C68.9645 100.504 69.3499 100.705 69.7499 100.82C70.8372 101.125 71.9844 100.947 73.0796 100.767C74.2941 100.577 75.5173 100.323 76.634 99.7926C77.5498 99.3882 78.3358 98.7128 78.8473 97.8507C79.0241 97.5632 79.213 97.2811 79.3548 96.9742C79.6122 96.3873 79.7383 95.7164 79.5473 95.0924C79.1719 93.7025 78.2717 92.5391 77.5098 91.3425C77.3857 91.1578 77.2604 90.9745 77.1353 90.7904C80.2785 88.4429 83.4464 86.1298 86.6421 83.854C87.6239 83.1559 88.608 82.4607 89.5959 81.7708C90.0524 81.4322 90.559 81.155 90.9694 80.7583C91.0751 80.6542 91.1745 80.544 91.2688 80.4299C91.2812 80.4151 91.2932 80.3998 91.3056 80.385C91.2865 80.3905 91.2676 80.3965 91.2488 80.4025L91.2483 80.4028ZM76.909 91.5073C77.3577 92.1964 77.8223 92.8757 78.2408 93.5836C78.4769 93.9926 78.7682 94.5211 78.9549 95.1545C79.2638 96.0528 78.8152 96.9023 78.2359 97.7689C77.5805 98.7294 76.8921 99.1393 75.8249 99.5603C74.7853 99.9458 73.9944 100.088 72.8673 100.271C71.4914 100.519 70.0389 100.622 69.1811 99.9854C68.7866 99.6929 68.5714 99.2538 68.6213 98.9145C68.6637 98.574 68.8363 98.2131 69.0682 97.7798C69.2792 97.3864 69.8586 96.7129 70.317 96.2315C71.1249 95.3976 72.1867 94.5498 73.2496 93.734C74.1127 93.0753 74.9722 92.4116 75.8414 91.7611C76.1146 91.5562 76.388 91.3518 76.6617 91.1465C76.7439 91.2672 76.8266 91.3875 76.9088 91.5081L76.909 91.5073Z" fill="#FB9649"/>
<g clip-path="url(#clip2_755_2960)">
<path d="M91.2868 80.0544C90.6189 79.966 89.8007 79.9034 89.3569 79.8469C88.9677 79.8019 88.5778 79.7609 88.1882 79.7203C88.0382 79.714 87.8866 79.6651 87.7376 79.6931C87.3625 79.8088 87.5035 80.2924 87.8192 80.2646C87.823 80.2647 87.8266 80.2645 87.8304 80.2647C88.0493 80.2868 88.268 80.3116 88.4867 80.3333C89.1917 80.4095 90.0941 80.5097 90.9948 80.5988C90.9947 80.6092 90.9946 80.6195 90.9945 80.6298C90.9896 80.839 90.9649 81.0479 90.9403 81.256C90.8758 81.8508 90.6602 82.9167 90.5251 83.7471C90.471 84.0896 90.4597 84.1964 90.4417 84.3717C90.4415 84.4322 90.4328 84.494 90.4337 84.5545C90.4293 84.6005 90.4377 84.6475 90.4611 84.6875C90.5184 84.7916 90.6643 84.8287 90.7682 84.7667C90.8193 84.7332 90.8605 84.6879 90.875 84.6276C90.875 84.6287 90.8735 84.6314 90.8716 84.6356C90.8806 84.611 90.8879 84.5856 90.8966 84.5606C90.9431 84.4278 90.9766 84.2917 91.0087 84.1552C91.1334 83.597 91.2365 83.0345 91.3396 82.472C91.4275 82.0023 91.4965 81.5298 91.5491 81.0554C91.5682 80.7201 91.6992 80.1927 91.2866 80.0551L91.2868 80.0544Z" fill="#FB9649"/>
</g>
<g clip-path="url(#clip3_755_2960)">
<path d="M68.1212 78.5828C67.9717 79.2397 67.8341 80.0486 67.7369 80.4854C67.6562 80.8687 67.5795 81.2532 67.5033 81.6374C67.4831 81.7863 67.4205 81.9327 67.4347 82.0837C67.5154 82.4678 68.0099 82.3719 68.0112 82.0549C68.0118 82.0512 68.0118 82.0476 68.0124 82.0438C68.0546 81.8279 68.0994 81.6124 68.1411 81.3967C68.2819 80.7016 68.4648 79.8124 68.6364 78.9236C68.6467 78.9247 68.657 78.9258 68.6673 78.9268C68.8752 78.9509 69.0808 78.9948 69.2858 79.0384C69.8721 79.1574 70.9137 79.4702 71.7281 79.6812C72.0642 79.7666 72.1695 79.7877 72.3424 79.8217C72.4026 79.8275 72.4634 79.8419 72.5236 79.8465C72.5691 79.8552 72.6166 79.8511 72.6586 79.8315C72.7675 79.7841 72.8179 79.6422 72.7658 79.533C72.7371 79.479 72.6958 79.4339 72.637 79.4139C72.6382 79.4139 72.6408 79.4157 72.6447 79.4179C72.621 79.4067 72.5964 79.3971 72.5723 79.3861C72.4443 79.3276 72.3119 79.2817 72.179 79.2372C71.6346 79.0617 71.084 78.9072 70.5334 78.7528C70.0738 78.622 69.6096 78.5097 69.1421 78.4137C68.81 78.3639 68.2968 78.1849 68.1219 78.583L68.1212 78.5828Z" fill="#FB9649"/>
</g>
<defs>
<clipPath id="clip0_755_2960">
<rect width="3.36" height="5.92" fill="white" transform="translate(59.084 78.0732) rotate(86.3861)"/>
</clipPath>
<clipPath id="clip1_755_2960">
<rect width="3.36" height="5.92" fill="white" transform="translate(86.0917 60.3364) rotate(49.4226)"/>
</clipPath>
<clipPath id="clip2_755_2960">
<rect width="3.36" height="5.92" fill="white" transform="translate(87.4078 79.873) rotate(-30.337)"/>
</clipPath>
<clipPath id="clip3_755_2960">
<rect width="3.36" height="5.92" fill="white" transform="translate(67.5837 82.4287) rotate(-115.054)"/>
</clipPath>
</defs>
</svg>
