<svg width="105" height="105" viewBox="0 0 105 105" fill="none" xmlns="http://www.w3.org/2000/svg">
<path fill-rule="evenodd" clip-rule="evenodd" d="M63.9449 42.8765C64.6409 41.6864 65.2432 40.4476 65.8454 39.2089L65.8993 39.098C66.3714 38.0667 66.8166 37.0234 67.2551 35.9779C67.3081 35.8404 67.3636 35.7037 67.4191 35.5671C67.5416 35.2656 67.6641 34.964 67.7594 34.6529C67.8754 34.2553 67.9113 33.8376 67.8971 33.425C67.615 33.7285 67.38 34.0752 67.1952 34.4459C67.0901 34.684 66.9963 34.9271 66.9026 35.1704C66.8442 35.3219 66.7858 35.4734 66.7246 35.6237C66.3333 36.5691 65.9262 37.5077 65.5095 38.4419C64.1514 41.3923 62.7649 43.8809 60.842 46.439C60.6385 46.711 60.4305 46.9801 60.2202 47.2469C58.9804 45.939 57.5737 44.7867 56.0563 43.8196C54.5673 42.8765 52.999 42.0462 51.3529 41.4117C50.0607 40.9342 48.7207 40.5807 47.3596 40.3632C45.8699 40.1405 44.3503 40.1622 42.8531 40.299C41.7868 40.4118 40.7243 40.6024 39.7 40.923C38.8829 41.186 38.101 41.5477 37.3401 41.9431C36.7295 42.2629 36.1317 42.6127 35.581 43.0282C34.9975 43.4699 34.4629 43.9703 33.9296 44.4696L33.8863 44.5101C33.2375 45.1162 32.6173 45.7537 32.0583 46.4435C31.5316 47.0772 31.0235 47.7431 30.6921 48.5024C30.4654 49.0277 30.3157 49.5822 30.178 50.136C29.9431 51.0754 29.789 52.0365 29.765 53.0058C29.7037 54.2747 29.8331 55.5609 30.288 56.7536C30.7654 58.033 31.5032 59.237 32.5297 60.1487C33.5541 61.0283 34.7804 61.6703 36.0741 62.0536C37.0303 62.3399 38.0292 62.5461 39.0326 62.4774C39.617 62.4355 40.1908 62.3077 40.7595 62.1732C41.4112 62.0237 42.0569 61.8504 42.6914 61.6381C44.1871 61.1382 45.6447 60.5164 47.0282 59.7578C48.0772 59.1832 49.0678 58.5091 50.045 57.8208C52.2643 56.2663 54.3376 54.5101 56.2531 52.5955C56.6212 52.2068 56.9901 51.8189 57.3589 51.4311L57.3599 51.4301L57.3646 51.4251C57.8868 50.876 58.4089 50.3269 58.9288 49.7758C59.3627 49.2826 59.7885 48.7819 60.2038 48.2737C60.6198 48.743 61.0807 49.299 61.4211 49.7885C62.1873 50.8908 62.7919 51.9199 63.2969 52.9325C64.3864 55.0564 65.1862 57.3268 65.5319 59.4529C66.0041 61.9764 66.1779 64.5402 66.3513 67.0981L66.3513 67.0982C66.3669 67.3286 66.3825 67.559 66.3983 67.7894C66.4339 68.3504 66.4641 68.9119 66.4943 69.4732C66.5618 70.7296 66.6292 71.9858 66.7575 73.2374C66.7679 73.324 66.7763 73.411 66.7847 73.498C66.8071 73.7298 66.8295 73.9617 66.8899 74.1872C66.982 74.5071 67.1279 74.8217 67.3449 75.0743C67.4915 74.5863 67.5559 74.0714 67.4698 73.5655C67.3106 72.1602 67.238 70.7483 67.1653 69.3363V69.3362L67.1653 69.3357C67.1403 68.8496 67.1153 68.3634 67.0867 67.8776C67.0729 67.6665 67.0593 67.4554 67.0456 67.2442C66.8439 64.1217 66.6411 60.9831 65.927 57.9291C65.3546 55.4779 64.307 53.159 63.0358 50.9932C62.3564 49.8229 61.5536 48.7266 60.6527 47.7162C60.8181 47.5077 60.9819 47.2984 61.1428 47.0862C62.1619 45.7417 63.1031 44.3368 63.9464 42.8757L63.9449 42.8765ZM57.1989 50.6922L57.1986 50.6925C56.8989 51.0053 56.5992 51.3181 56.304 51.6352C54.5022 53.5461 52.4701 55.2963 50.1984 56.9501C49.0866 57.7475 47.9627 58.5352 46.767 59.2041C45.9777 59.6502 44.6698 60.2608 43.5721 60.6741C42.6106 61.0447 41.626 61.3564 40.6211 61.5851C40.122 61.7069 39.1875 61.9191 38.4243 61.884C36.6435 61.7786 34.3853 61.0074 32.8777 59.654C31.6274 58.5419 30.6801 56.6527 30.4392 54.96C30.2446 53.36 30.3494 52.0387 30.7227 50.414L30.7411 50.3392C30.9089 49.6564 31.0041 49.2689 31.3168 48.5764C31.8862 47.3844 33.3685 45.815 34.297 44.9473L34.3559 44.8925L34.3559 44.8925C34.9792 44.3126 35.6055 43.7298 36.3128 43.2516C37.3431 42.5678 38.2297 42.1336 39.4703 41.6509C41.1867 40.9985 43.721 40.7832 45.4105 40.8355C46.5082 40.858 47.5976 41.0231 48.6631 41.2809C50.3279 41.6516 52.0398 42.3339 53.7159 43.236C55.7488 44.3039 57.7533 45.7044 59.4944 47.5114C59.576 47.5951 59.671 47.6945 59.7735 47.8044C59.4301 48.2266 59.0799 48.6429 58.7238 49.0539L58.7253 49.0531C58.2323 49.6136 57.7157 50.1528 57.1989 50.6922ZM44.3079 57.4337C43.8755 57.4553 43.503 57.6469 43.1291 57.8392C43.0378 57.8862 42.9464 57.9332 42.8541 57.9778C42.1283 58.3275 41.3823 58.6444 40.6049 58.8603C40.1313 59.0001 39.5649 59.0995 38.8354 59.1944C38.263 59.2714 37.3801 59.2729 37.1406 59.2527C36.2532 59.1765 35.8993 59.0509 35.1114 58.622C33.9831 57.992 33.1945 56.7006 32.7298 55.0131C32.6849 54.8106 32.6512 54.6058 32.6273 54.3996C32.5719 53.783 32.5697 53.2532 32.6019 52.8937C32.6744 52.1366 32.7971 51.6509 32.9894 51.133C33.4197 50.0299 33.823 49.4664 34.5592 48.4912C34.964 48.0159 35.5312 47.4651 35.7512 47.2581C36.0849 46.9345 37.2888 45.895 37.9697 45.3524C38.0764 45.2627 38.1897 45.1819 38.303 45.1012L38.303 45.1011C38.4247 45.0143 38.5463 44.9276 38.6595 44.83C38.7379 44.7589 38.8047 44.7001 38.8649 44.6471C39.0698 44.4666 39.1984 44.3534 39.4459 44.0513C38.6042 43.9676 38.0505 44.2419 37.4227 44.7725C36.8294 45.2448 36.248 45.7321 35.6741 46.2275C35.0546 46.7761 34.4575 47.353 33.9143 47.977C33.4129 48.6152 32.9565 49.2923 32.5772 50.0105C31.8888 51.3437 31.6546 52.819 31.7818 54.3069C31.8491 55.25 32.1836 56.1498 32.5914 56.995C33.175 58.1915 34.0257 59.0808 35.2491 59.6293C36.9768 60.4783 39.8425 60.0314 41.612 59.4104C42.1545 59.2108 42.685 58.9807 43.2035 58.7266C43.2901 58.6813 43.3782 58.6384 43.4665 58.5954C43.6871 58.4879 43.9081 58.3803 44.1059 58.2356C44.3715 58.0241 44.5885 57.7528 44.7247 57.4419C44.5863 57.424 44.4456 57.424 44.3064 57.4344L44.3079 57.4337ZM64.1036 58.8558C64.3011 60.0321 64.4358 61.2158 64.5518 62.4019L64.5503 62.4011C64.5592 62.5183 64.5736 62.6352 64.588 62.7522C64.618 62.9962 64.648 63.2402 64.6288 63.4862C64.6109 63.762 64.5375 64.04 64.3827 64.2709C64.3759 64.2821 64.3684 64.2926 64.3617 64.3031C64.3108 64.2365 64.2607 64.17 64.2128 64.1013C64.1769 64.0431 64.1461 63.9947 64.1189 63.9521C63.9935 63.7551 63.9473 63.6825 63.8439 63.3427C63.7818 63.0392 63.7533 62.7131 63.7249 62.3897C63.7089 62.2067 63.693 62.0247 63.6711 61.8481C63.5843 60.89 63.4466 59.9357 63.2962 58.9851C63.2601 58.7661 63.2218 58.6272 63.1757 58.46C63.1359 58.3155 63.0902 58.1499 63.0351 57.8932C63.0275 57.8583 63.0203 57.825 63.0133 57.793C62.9232 57.3772 62.8816 57.1852 62.7059 56.6183C62.5869 56.14 62.447 55.6684 62.2502 55.2163C62.0582 54.7394 61.6451 53.9575 61.3474 53.3941C61.1973 53.1099 61.0765 52.8813 61.0283 52.7755C60.9464 52.6167 60.8542 52.4639 60.762 52.3112C60.6638 52.1486 60.5656 51.9859 60.4799 51.816C60.31 51.455 60.2165 51.0388 60.1447 50.7054C61.0606 50.9982 61.4939 51.8595 61.9059 52.6785C62.0072 52.8799 62.1072 53.0786 62.2128 53.2658C62.5832 53.9556 62.9408 54.6543 63.2132 55.3889C63.3009 55.6296 63.3664 55.878 63.4318 56.1259C63.4479 56.1867 63.4639 56.2475 63.4803 56.3082C63.5895 56.6699 63.6928 57.0338 63.7684 57.4045C63.8246 57.6988 63.8739 57.8914 63.9273 58.0998C63.9789 58.3015 64.0344 58.518 64.1036 58.8558Z" fill="#FB9649"/>
<g clip-path="url(#clip0_755_2959)">
<path d="M67.6709 33.4157C66.9855 33.6864 66.1702 34.0616 65.716 34.2436C65.32 34.4075 64.9256 34.5756 64.5316 34.744C64.3848 34.8177 64.2139 34.8516 64.0864 34.9576C63.7894 35.2676 64.1813 35.6549 64.4683 35.4603C64.4721 35.4585 64.4753 35.4564 64.479 35.4545C64.7001 35.3593 64.9222 35.2667 65.1428 35.1711C65.8572 34.8691 66.773 34.4852 67.6813 34.0914C67.6867 34.1013 67.6921 34.1113 67.6974 34.1212C67.8041 34.3237 67.8914 34.5365 67.9786 34.7485C68.2332 35.3513 68.5939 36.4847 68.9063 37.3503C69.0367 37.7065 69.0827 37.8146 69.1587 37.9916C69.1907 38.0496 69.2152 38.1133 69.2482 38.1706C69.2685 38.2169 69.3015 38.2574 69.3452 38.2832C69.4552 38.3522 69.6144 38.3101 69.6808 38.1956C69.7118 38.1364 69.7271 38.0713 69.7088 38.0058C69.7095 38.0069 69.7095 38.0103 69.7099 38.0152C69.7054 37.987 69.6989 37.9588 69.6939 37.9303C69.6677 37.7786 69.6274 37.6307 69.5855 37.4833C69.4079 36.8834 69.2073 36.291 69.0068 35.6985C68.8411 35.2028 68.6559 34.7144 68.4539 34.233C68.2938 33.9025 68.1386 33.3287 67.6711 33.4165L67.6709 33.4157Z" fill="#FB9649"/>
</g>
<g clip-path="url(#clip1_755_2959)">
<path d="M67.6015 74.8992C68.0911 74.3485 68.6496 73.6459 68.973 73.2786C69.2524 72.9538 69.5287 72.6259 69.8044 72.2979C69.9022 72.1659 70.0394 72.0586 70.1054 71.9064C70.2306 71.4958 69.7062 71.3269 69.5378 71.63C69.5353 71.6333 69.5333 71.6366 69.5308 71.64C69.3765 71.8247 69.22 72.0075 69.0662 72.1923C68.5648 72.784 67.9206 73.5397 67.2875 74.3008C67.2782 74.2944 67.269 74.2879 67.2597 74.2815C67.0731 74.1488 66.8992 73.9983 66.7258 73.8484C66.2267 73.4252 65.3936 72.5763 64.7244 71.9446C64.4474 71.6855 64.3576 71.6098 64.2099 71.4861C64.1552 71.4487 64.1046 71.4029 64.0493 71.3667C64.0103 71.3345 63.9626 71.3133 63.912 71.31C63.7826 71.2979 63.6595 71.4073 63.6519 71.5395C63.651 71.6063 63.6667 71.6713 63.7125 71.7215C63.7114 71.7208 63.7098 71.7178 63.7073 71.7136C63.724 71.7368 63.7425 71.759 63.7598 71.7822C63.8516 71.9058 63.9543 72.0196 64.0582 72.1323C64.4873 72.5875 64.9335 73.0259 65.3796 73.4642C65.7511 73.8319 66.1367 74.1843 66.5341 74.5228C66.826 74.7457 67.2234 75.1878 67.601 74.8985L67.6015 74.8992Z" fill="#FB9649"/>
</g>
<defs>
<clipPath id="clip0_755_2959">
<rect width="3.675" height="6.475" fill="white" transform="translate(63.8671 35.3052) rotate(-59.4235)"/>
</clipPath>
<clipPath id="clip1_755_2959">
<rect width="3.675" height="6.475" fill="white" transform="translate(70.1445 71.4973) rotate(93.769)"/>
</clipPath>
</defs>
</svg>
