<svg width="150" height="150" viewBox="0 0 150 150" fill="none" xmlns="http://www.w3.org/2000/svg">
<path d="M88.7997 85.0514C88.7379 84.9949 88.6752 84.9403 88.6105 84.8877C88.2442 84.5695 87.802 84.3683 87.3679 84.1614C86.8859 83.9282 86.4032 83.6961 85.9208 83.465C84.3844 82.7297 82.8426 82.0055 81.2969 81.2895C77.7636 79.6557 74.2033 78.0795 70.6193 76.5603C71.1451 75.4424 71.6599 74.319 72.1798 73.1977C73.3207 70.7209 74.4856 68.2552 75.6806 65.8035C76.0354 65.0625 76.3863 64.32 76.7462 63.5812C76.9092 63.2298 77.1 62.8895 77.2439 62.5297C77.3726 62.1715 77.4405 61.7916 77.4404 61.411C77.0862 61.6863 76.7832 62.0295 76.5715 62.4261C76.3285 62.9183 76.0892 63.4126 75.8502 63.9062C75.1728 65.3344 74.4733 66.7524 73.7913 68.1788C72.499 70.8717 71.2638 73.5915 69.9935 76.2946C69.444 76.0626 68.8935 75.8324 68.3432 75.6032C66.5299 74.8826 64.7401 74.0953 62.889 73.4747C62.0318 73.1924 61.164 72.9374 60.2734 72.7852C59.7254 72.6809 59.1691 72.6036 58.6104 72.6272C58.0199 72.6621 57.393 72.7064 56.8838 73.0347C56.4892 73.3124 56.2415 73.7655 56.116 74.223C56.0108 74.6896 56.0362 75.1867 56.1546 75.6487C56.4837 76.9001 57.3245 77.9309 58.1383 78.9082C59.0304 79.9982 59.9902 81.0601 61.1624 81.8557C62.0933 82.5262 63.2165 82.9111 64.3652 82.9166C64.7518 82.9245 65.1401 82.9476 65.5257 82.9097C66.255 82.8237 66.991 82.5592 67.4969 82.0085C68.6526 80.8314 69.2801 79.2671 70.0207 77.8201C70.1313 77.5904 70.2397 77.3602 70.3491 77.1298C74.492 78.8744 78.6152 80.6632 82.7176 82.5013C83.9769 83.0666 85.2347 83.6358 86.4894 84.2119C87.0888 84.4667 87.6566 84.8065 88.2866 84.982C88.4508 85.0261 88.6173 85.0604 88.7848 85.0873C88.8066 85.091 88.8287 85.094 88.8505 85.0977C88.834 85.082 88.8171 85.0668 88.8003 85.0517L88.7997 85.0514ZM69.5094 77.322C69.0887 78.1651 68.687 79.0182 68.2301 79.8424C67.9629 80.3129 67.6095 80.9073 67.0919 81.4591C66.3834 82.2854 65.2838 82.3348 64.0914 82.2649C62.7621 82.1743 61.9577 81.7318 60.9227 80.9214C59.9387 80.1177 59.3398 79.4185 58.5049 78.4109C57.4615 77.1954 56.5179 75.8193 56.6492 74.6026C56.7094 74.0431 57.0185 73.5758 57.3828 73.4283C57.7439 73.2727 58.2007 73.234 58.7633 73.2118C59.2745 73.1922 60.2761 73.3741 61.0176 73.5479C62.3103 73.8626 63.7639 74.4201 65.1865 74.9973C66.3381 75.4681 67.4925 75.9326 68.6394 76.4142C69.0004 76.5653 69.361 76.717 69.7225 76.8684C69.651 77.0196 69.5801 77.1711 69.5085 77.3223L69.5094 77.322Z" fill="#FB9649"/>
<g clip-path="url(#clip0_755_2957)">
<path d="M89.1668 84.8869C88.8667 84.1756 88.454 83.3308 88.2524 82.8595C88.0712 82.4488 87.8856 82.0397 87.6997 81.6311C87.6189 81.4792 87.5793 81.301 87.4652 81.17C87.1333 80.8665 86.7372 81.2863 86.9479 81.5822C86.9499 81.5861 86.9522 81.5894 86.9542 81.5933C87.0593 81.8225 87.1617 82.0529 87.2671 82.2816C87.6007 83.0226 88.025 83.9724 88.4594 84.9141C88.4491 84.92 88.4388 84.9259 88.4286 84.9318C88.219 85.0484 87.9983 85.145 87.7784 85.2414C87.1531 85.5227 85.9748 85.9279 85.0758 86.276C84.7059 86.4212 84.5939 86.472 84.4102 86.5559C84.3503 86.5907 84.2842 86.618 84.225 86.6539C84.1769 86.6763 84.1354 86.7119 84.1094 86.7582C84.0398 86.8751 84.0877 87.0409 84.2093 87.1076C84.272 87.1387 84.3406 87.1531 84.4087 87.1324C84.4076 87.1331 84.404 87.1332 84.3989 87.1337C84.4283 87.1284 84.4577 87.1208 84.4874 87.115C84.6457 87.0839 84.7996 87.038 84.953 86.9906C85.5769 86.79 86.1926 86.5657 86.8083 86.3413C87.3234 86.1558 87.8304 85.9499 88.3297 85.7268C88.672 85.5511 89.2693 85.3746 89.1659 84.8871L89.1668 84.8869Z" fill="#FB9649"/>
</g>
<g clip-path="url(#clip1_755_2957)">
<path d="M77.1843 61.1415C76.4485 61.3748 75.5693 61.708 75.0813 61.8653C74.6557 62.0079 74.2313 62.1551 73.8073 62.3026C73.6486 62.369 73.4675 62.3921 73.3266 62.4937C72.9938 62.7961 73.3754 63.2293 73.6894 63.0467C73.6934 63.0451 73.697 63.0431 73.701 63.0414C73.9389 62.9579 74.1778 62.8771 74.4152 62.7932C75.1837 62.5293 76.1686 62.1942 77.1463 61.8484C77.1512 61.8592 77.1561 61.8699 77.1611 61.8807C77.2578 62.1001 77.3338 62.3288 77.4095 62.5566C77.632 63.2051 77.927 64.4157 78.1909 65.343C78.3014 65.7246 78.3417 65.8409 78.4083 66.0315C78.4375 66.0944 78.4586 66.1627 78.4889 66.225C78.5067 66.2749 78.5383 66.3195 78.5821 66.3496C78.6921 66.4298 78.8616 66.3973 78.9392 66.2824C78.9759 66.2227 78.9966 66.1558 78.9822 66.0861C78.9829 66.0873 78.9826 66.0908 78.9827 66.096C78.98 66.0662 78.9752 66.0363 78.9721 66.0061C78.9557 65.8457 78.9243 65.6882 78.8911 65.531C78.7489 64.8913 78.5821 64.2576 78.4154 63.6239C78.2781 63.0938 78.1198 62.57 77.9436 62.0523C77.8002 61.6953 77.6794 61.0843 77.1845 61.1423L77.1843 61.1415Z" fill="#FB9649"/>
</g>
<defs>
<clipPath id="clip0_755_2957">
<rect width="3.85" height="6.78333" fill="white" transform="translate(87.0959 80.9487) rotate(29.2531)"/>
</clipPath>
<clipPath id="clip1_755_2957">
<rect width="3.85" height="6.78333" fill="white" transform="translate(73.0722 62.8411) rotate(-55.4644)"/>
</clipPath>
</defs>
</svg>
