<?xml version="1.0" encoding="UTF-8"?>
<svg version="1.1" xmlns="http://www.w3.org/2000/svg" width="96" height="78">
<path d="M0 0 C31.68 0 63.36 0 96 0 C96 25.74 96 51.48 96 78 C64.32 78 32.64 78 0 78 C0 52.26 0 26.52 0 0 Z " fill="#FEFEFE" transform="translate(0,0)"/>
<path d="M0 0 C19.90435615 8.06310723 35.57053933 43.48529173 44 62 C44.71875 64.45703125 44.71875 64.45703125 45 66 C42 65 42 65 40.82421875 63.1015625 C40.44910156 62.28429687 40.07398438 61.46703125 39.6875 60.625 C30.22258052 40.80171732 18.72141427 21.7166187 3.453125 5.83056641 C0 2.20305365 0 2.20305365 0 0 Z " fill="#FBA360" transform="translate(24,10)"/>
</svg>
