<?xml version="1.0" encoding="UTF-8"?>
<svg version="1.1" xmlns="http://www.w3.org/2000/svg" width="63" height="70">
<path d="M0 0 C20.79 0 41.58 0 63 0 C63 23.1 63 46.2 63 70 C42.21 70 21.42 70 0 70 C0 46.9 0 23.8 0 0 Z " fill="#FEFEFE" transform="translate(0,0)"/>
<path d="M0 0 C3.3 0 6.6 0 10 0 C10 23.1 10 46.2 10 70 C-6.5 70 -23 70 -40 70 C-38.35176012 66.70352024 -37.60863086 65.37758537 -35.09375 63.0390625 C-34.51963379 62.49241943 -33.94551758 61.94577637 -33.35400391 61.38256836 C-32.74218262 60.8025708 -32.13036133 60.22257324 -31.5 59.625 C-24.67894872 52.97443129 -19.19411911 45.95954931 -14 38 C-12.95585938 36.44732422 -12.95585938 36.44732422 -11.890625 34.86328125 C-5.70459832 25.30850748 -0.60390256 14.81170767 3 4 C2.01 3.67 1.02 3.34 0 3 C0 2.01 0 1.02 0 0 Z " fill="#FCFCFB" transform="translate(53,0)"/>
<path d="M0 0 C0.66 0 1.32 0 2 0 C0.93256422 7.21419744 -1.10206803 13.0103112 -4.625 19.375 C-5.29486938 20.6115332 -5.29486938 20.6115332 -5.97827148 21.87304688 C-11.96736727 32.78133759 -18.97303981 42.48541785 -27 52 C-27.85422326 53.08328871 -28.70840131 54.16661307 -29.5625 55.25 C-33.37487321 59.551139 -37.46624452 64.15541484 -43 66 C-41.7095304 63.13802177 -40.38876468 61.17313747 -38.09375 59.0390625 C-37.51963379 58.49241943 -36.94551758 57.94577637 -36.35400391 57.38256836 C-35.74218262 56.8025708 -35.13036133 56.22257324 -34.5 55.625 C-27.67894872 48.97443129 -22.19411911 41.95954931 -17 34 C-15.95585938 32.44732422 -15.95585938 32.44732422 -14.890625 30.86328125 C-8.70459832 21.30850748 -3.60390256 10.81170767 0 0 Z " fill="#FBA461" transform="translate(56,4)"/>
</svg>
