<svg width="48" height="48" viewBox="0 0 48 48" fill="none" xmlns="http://www.w3.org/2000/svg">
<rect width="48" height="48" fill="white"/>
<path d="M27 5.2501C27.0007 5.91063 26.7833 6.55293 26.3817 7.07733C25.9801 7.60172 25.4166 7.97891 24.7787 8.15036C24.1408 8.32181 23.4641 8.27794 22.8537 8.02555C22.2433 7.77317 21.7333 7.32638 21.4027 6.75451C21.0721 6.18264 20.9396 5.51766 21.0255 4.86274C21.1115 4.20783 21.4112 3.59959 21.8781 3.1324C22.3451 2.66521 22.9532 2.3652 23.608 2.27889C24.2629 2.19259 24.928 2.32483 25.5 2.6551C25.9556 2.91814 26.334 3.29637 26.5973 3.75185C26.8606 4.20732 26.9995 4.72401 27 5.2501Z" fill="#FB9649"/>
<path d="M25.4996 2.65508C25.4937 3.73932 25.0604 4.77747 24.2937 5.54416C23.527 6.31084 22.4888 6.74417 21.4046 6.75008C21.0767 6.17848 20.9461 5.51482 21.0331 4.86161C21.12 4.20839 21.4196 3.60197 21.8855 3.13601C22.3515 2.67004 22.9579 2.37047 23.6111 2.28354C24.2643 2.19662 24.928 2.32719 25.4996 2.65508Z" fill="#FB9649"/>
<path d="M27 35.2501C27.0007 35.9106 26.7833 36.5529 26.3817 37.0773C25.9801 37.6017 25.4166 37.9789 24.7787 38.1504C24.1408 38.3218 23.4641 38.2779 22.8537 38.0256C22.2433 37.7732 21.7333 37.3264 21.4027 36.7545C21.0721 36.1826 20.9396 35.5177 21.0255 34.8627C21.1115 34.2078 21.4112 33.5996 21.8781 33.1324C22.3451 32.6652 22.9532 32.3652 23.608 32.2789C24.2629 32.1926 24.928 32.3248 25.5 32.6551C25.9556 32.9181 26.334 33.2964 26.5973 33.7518C26.8606 34.2073 26.9995 34.724 27 35.2501Z" fill="#FB9649"/>
<path d="M25.4996 32.6551C25.4937 33.7393 25.0604 34.7775 24.2937 35.5442C23.527 36.3108 22.4888 36.7442 21.4046 36.7501C21.0767 36.1785 20.9461 35.5148 21.0331 34.8616C21.12 34.2084 21.4196 33.602 21.8855 33.136C22.3515 32.67 22.9579 32.3705 23.6111 32.2835C24.2643 32.1966 24.928 32.3272 25.4996 32.6551Z" fill="#FB9649"/>
<path d="M9.75 20.2501C9.75068 20.9106 9.53334 21.5529 9.1317 22.0773C8.73007 22.6017 8.16659 22.9789 7.52869 23.1504C6.8908 23.3218 6.21415 23.2779 5.60373 23.0256C4.99332 22.7732 4.48326 22.3264 4.1527 21.7545C3.82214 21.1826 3.68955 20.5177 3.77552 19.8627C3.86148 19.2078 4.16119 18.5996 4.62814 18.1324C5.09509 17.6652 5.70317 17.3652 6.35804 17.2789C7.01291 17.1926 7.67796 17.3248 8.25 17.6551C8.70561 17.9181 9.08403 18.2964 9.34731 18.7518C9.61059 19.2073 9.74946 19.724 9.75 20.2501Z" fill="#7ACCBE"/>
<path d="M8.24959 17.6551C8.24368 18.7393 7.81035 19.7775 7.04367 20.5442C6.27698 21.3108 5.23883 21.7442 4.15459 21.7501C3.8267 21.1785 3.69613 20.5148 3.78305 19.8616C3.86998 19.2084 4.16956 18.602 4.63552 18.136C5.10148 17.67 5.7079 17.3705 6.36112 17.2835C7.01433 17.1966 7.67799 17.3272 8.24959 17.6551Z" fill="#61C3B6"/>
<path d="M44.25 20.2501C44.2507 20.9106 44.0333 21.5529 43.6317 22.0773C43.2301 22.6017 42.6666 22.9789 42.0287 23.1504C41.3908 23.3218 40.7141 23.2779 40.1037 23.0256C39.4933 22.7732 38.9833 22.3264 38.6527 21.7545C38.3221 21.1826 38.1896 20.5177 38.2755 19.8627C38.3615 19.2078 38.6612 18.5996 39.1281 18.1324C39.5951 17.6652 40.2032 17.3652 40.858 17.2789C41.5129 17.1926 42.178 17.3248 42.75 17.6551C43.2056 17.9181 43.584 18.2964 43.8473 18.7518C44.1106 19.2073 44.2495 19.724 44.25 20.2501Z" fill="#7ACCBE"/>
<path d="M42.7496 17.6551C42.7437 18.7393 42.3104 19.7775 41.5437 20.5442C40.777 21.3108 39.7388 21.7442 38.6546 21.7501C38.3267 21.1785 38.1961 20.5148 38.2831 19.8616C38.37 19.2084 38.6696 18.602 39.1355 18.136C39.6015 17.67 40.2079 17.3705 40.8611 17.2835C41.5143 17.1966 42.178 17.3272 42.7496 17.6551Z" fill="#61C3B6"/>
<path d="M43.665 23.0926C44.1782 22.649 44.5615 22.0745 44.774 21.4303C44.9865 20.7861 45.0203 20.0963 44.8718 19.4344C44.7232 18.7725 44.3979 18.1633 43.9305 17.6716C43.4631 17.18 42.8711 16.8244 42.2175 16.6426C40.9669 13.6431 38.9898 11.0019 36.4642 8.95683C33.9386 6.91176 30.944 5.52711 27.75 4.92761C27.636 4.02704 27.1991 3.1984 26.5206 2.59544C25.842 1.99248 24.9677 1.65613 24.06 1.6488C23.1522 1.64148 22.2727 1.96366 21.5844 2.55559C20.8962 3.14752 20.4461 3.969 20.3175 4.86761C17.1492 5.48607 14.1833 6.87967 11.685 8.92392C9.18658 10.9682 7.23344 13.5994 6 16.5826C5.31908 16.7323 4.69338 17.0689 4.19315 17.5545C3.69291 18.0401 3.33795 18.6555 3.16813 19.3317C2.99831 20.0079 3.02034 20.718 3.23176 21.3824C3.44318 22.0467 3.83562 22.639 4.365 23.0926C3.50566 23.5308 2.78367 24.1973 2.27826 25.0189C1.77286 25.8405 1.50359 26.7855 1.5 27.7501V30.7501C1.5 30.949 1.57902 31.1398 1.71967 31.2804C1.86032 31.4211 2.05109 31.5001 2.25 31.5001H6C7.13448 34.2184 8.87163 36.6436 11.0803 38.5924C13.289 40.5413 15.9116 41.9629 18.75 42.7501V45.7501C18.75 45.949 18.829 46.1398 18.9697 46.2804C19.1103 46.4211 19.3011 46.5001 19.5 46.5001H28.5C28.6989 46.5001 28.8897 46.4211 29.0303 46.2804C29.171 46.1398 29.25 45.949 29.25 45.7501V42.7501C32.0884 41.9629 34.711 40.5413 36.9197 38.5924C39.1284 36.6436 40.8655 34.2184 42 31.5001H45.75C45.9489 31.5001 46.1397 31.4211 46.2803 31.2804C46.421 31.1398 46.5 30.949 46.5 30.7501V27.7501C46.4993 26.7886 46.2345 25.8458 45.7345 25.0245C45.2346 24.2032 44.5187 23.5349 43.665 23.0926ZM43.5 20.2501C43.5 20.6951 43.368 21.1301 43.1208 21.5001C42.8736 21.8702 42.5222 22.1585 42.111 22.3288C41.6999 22.4991 41.2475 22.5437 40.811 22.4569C40.3746 22.3701 39.9737 22.1558 39.659 21.8411C39.3443 21.5264 39.1301 21.1255 39.0432 20.6891C38.9564 20.2526 39.001 19.8002 39.1713 19.3891C39.3416 18.9779 39.63 18.6265 40 18.3793C40.37 18.1321 40.805 18.0001 41.25 18.0001C41.8467 18.0001 42.419 18.2372 42.841 18.6591C43.2629 19.0811 43.5 19.6534 43.5 20.2501ZM24 3.00011C24.445 3.00011 24.88 3.13207 25.25 3.37931C25.62 3.62654 25.9084 3.97794 26.0787 4.38908C26.249 4.80021 26.2936 5.25261 26.2068 5.68907C26.12 6.12552 25.9057 6.52644 25.591 6.8411C25.2763 7.15577 24.8754 7.37006 24.439 7.45688C24.0025 7.5437 23.5501 7.49914 23.139 7.32884C22.7278 7.15855 22.3764 6.87016 22.1292 6.50015C21.882 6.13014 21.75 5.69512 21.75 5.25011C21.75 4.65338 21.9871 4.08108 22.409 3.65912C22.831 3.23717 23.4033 3.00011 24 3.00011ZM24 9.10511C24.9843 9.10499 25.9291 9.49183 26.6307 10.1822C27.3322 10.8725 27.7343 11.811 27.75 12.7951V15.0451L20.25 15.1576V12.9076C20.243 12.4108 20.3349 11.9175 20.5202 11.4564C20.7056 10.9954 20.9807 10.5758 21.3296 10.222C21.6785 9.86816 22.0943 9.58723 22.5527 9.3955C23.0111 9.20377 23.5031 9.10506 24 9.10511ZM4.5 20.2501C4.5 19.8051 4.63196 19.3701 4.87919 19.0001C5.12643 18.6301 5.47783 18.3417 5.88896 18.1714C6.3001 18.0011 6.7525 17.9565 7.18895 18.0433C7.62541 18.1302 8.02632 18.3445 8.34099 18.6591C8.65566 18.9738 8.86995 19.3747 8.95677 19.8112C9.04358 20.2476 8.99903 20.7 8.82873 21.1112C8.65843 21.5223 8.37004 21.8737 8.00003 22.1209C7.63002 22.3682 7.19501 22.5001 6.75 22.5001C6.15326 22.5001 5.58097 22.2631 5.15901 21.8411C4.73705 21.4191 4.5 20.8468 4.5 20.2501ZM3 27.7501C3 26.7556 3.39509 25.8017 4.09835 25.0985C4.80161 24.3952 5.75544 24.0001 6.75 24.0001C7.74456 24.0001 8.69839 24.3952 9.40165 25.0985C10.1049 25.8017 10.5 26.7556 10.5 27.7501V30.0001H3V27.7501ZM27.75 45.0001H20.25V42.7501C20.25 41.7556 20.6451 40.8017 21.3484 40.0985C22.0516 39.3952 23.0054 39.0001 24 39.0001C24.9946 39.0001 25.9484 39.3952 26.6516 40.0985C27.3549 40.8017 27.75 41.7556 27.75 42.7501V45.0001ZM21.75 35.2501C21.75 34.8051 21.882 34.3701 22.1292 34.0001C22.3764 33.6301 22.7278 33.3417 23.139 33.1714C23.5501 33.0011 24.0025 32.9565 24.439 33.0433C24.8754 33.1302 25.2763 33.3445 25.591 33.6591C25.9057 33.9738 26.12 34.3747 26.2068 34.8112C26.2936 35.2476 26.249 35.7 26.0787 36.1112C25.9084 36.5223 25.62 36.8737 25.25 37.1209C24.88 37.3682 24.445 37.5001 24 37.5001C23.4033 37.5001 22.831 37.2631 22.409 36.8411C21.9871 36.4191 21.75 35.8469 21.75 35.2501ZM29.04 41.2501C28.8406 40.569 28.5052 39.9353 28.054 39.3875C27.6029 38.8396 27.0453 38.3889 26.415 38.0626C27.0034 37.5673 27.4252 36.9031 27.6234 36.16C27.8215 35.4169 27.7864 34.6309 27.5228 33.9084C27.2592 33.1859 26.7799 32.562 26.1497 32.1211C25.5195 31.6802 24.7691 31.4438 24 31.4438C23.2309 31.4438 22.4805 31.6802 21.8503 32.1211C21.2201 32.562 20.7408 33.1859 20.4772 33.9084C20.2136 34.6309 20.1785 35.4169 20.3766 36.16C20.5748 36.9031 20.9966 37.5673 21.585 38.0626C20.9547 38.3889 20.3971 38.8396 19.946 39.3875C19.4948 39.9353 19.1594 40.569 18.96 41.2501C16.4842 40.5308 14.1917 39.288 12.2379 37.6059C10.284 35.9238 8.71431 33.8415 7.635 31.5001H11.25C11.4489 31.5001 11.6397 31.4211 11.7803 31.2804C11.921 31.1398 12 30.949 12 30.7501V27.7501C11.9993 26.7886 11.7345 25.8458 11.2345 25.0245C10.7346 24.2032 10.0187 23.5349 9.165 23.0926C9.68793 22.6419 10.0763 22.0556 10.2873 21.3983C10.4983 20.741 10.5238 20.0382 10.361 19.3673C10.1981 18.6965 9.85319 18.0836 9.36427 17.5962C8.87535 17.1088 8.26138 16.7659 7.59 16.6051C8.76713 14.002 10.5457 11.7158 12.7793 9.93464C15.013 8.15348 17.6377 6.92834 20.4375 6.36011C20.6569 7.0703 21.0856 7.69769 21.6675 8.16011C21.1419 8.42573 20.6631 8.77532 20.25 9.19511C19.7648 9.69019 19.3824 10.2765 19.125 10.9201C18.8675 11.5637 18.7401 12.252 18.75 12.9451L18.795 15.9451C18.7974 16.0436 18.8191 16.1407 18.859 16.2307C18.8989 16.3208 18.9562 16.4022 19.0275 16.4701C19.1665 16.6041 19.3519 16.6793 19.545 16.6801L28.545 16.5376C28.7439 16.5376 28.9347 16.4586 29.0753 16.3179C29.216 16.1773 29.295 15.9865 29.295 15.7876L29.25 12.7501C29.2339 11.7856 28.9524 10.8442 28.4365 10.0292C27.9205 9.21425 27.1899 8.55716 26.325 8.13011C26.8796 7.67665 27.2955 7.07627 27.525 6.39761C30.3464 6.93826 32.9987 8.14253 35.2627 9.91092C37.5266 11.6793 39.3373 13.9611 40.545 16.5676C39.8549 16.7047 39.2174 17.0332 38.7051 17.5155C38.1929 17.9978 37.8267 18.6145 37.6483 19.2951C37.47 19.9756 37.4867 20.6927 37.6965 21.3642C37.9064 22.0357 38.3009 22.6347 38.835 23.0926C37.9813 23.5349 37.2654 24.2032 36.7655 25.0245C36.2655 25.8458 36.0007 26.7886 36 27.7501V30.7501C36 30.949 36.079 31.1398 36.2197 31.2804C36.3603 31.4211 36.5511 31.5001 36.75 31.5001H40.365C39.2857 33.8415 37.716 35.9238 35.7621 37.6059C33.8083 39.288 31.5158 40.5308 29.04 41.2501ZM45 30.0001H37.5V27.7501C37.5 26.7556 37.8951 25.8017 38.5984 25.0985C39.3016 24.3952 40.2554 24.0001 41.25 24.0001C42.2446 24.0001 43.1984 24.3952 43.9016 25.0985C44.6049 25.8017 45 26.7556 45 27.7501V30.0001Z" fill="#4E5B5F"/>
</svg>
