<svg width="48" height="48" viewBox="0 0 48 48" fill="none" xmlns="http://www.w3.org/2000/svg">
<path d="M42.75 33.75H5.25V8.25C5.25 7.85218 5.40804 7.47064 5.68934 7.18934C5.97064 6.90804 6.35218 6.75 6.75 6.75H41.25C41.6478 6.75 42.0294 6.90804 42.3107 7.18934C42.592 7.47064 42.75 7.85218 42.75 8.25V33.75Z" fill="white"/>
<path d="M36.75 12H24.75C23.5074 12 22.5 13.0074 22.5 14.25V26.25C22.5 27.4926 23.5074 28.5 24.75 28.5H36.75C37.9926 28.5 39 27.4926 39 26.25V14.25C39 13.0074 37.9926 12 36.75 12Z" fill="#E6E6E6"/>
<path d="M36.75 10.5H24.75C23.5074 10.5 22.5 11.5074 22.5 12.75V24.75C22.5 25.9926 23.5074 27 24.75 27H36.75C37.9926 27 39 25.9926 39 24.75V12.75C39 11.5074 37.9926 10.5 36.75 10.5Z" fill="#FB9649"/>
<path d="M36.75 16.875C36.7511 18.936 36.2036 20.9602 35.1636 22.7396C34.1237 24.519 32.6288 25.9895 30.8325 27H24.75C24.1533 27 23.581 26.7629 23.159 26.341C22.7371 25.919 22.5 25.3467 22.5 24.75V12.75C22.5 12.1533 22.7371 11.581 23.159 11.159C23.581 10.7371 24.1533 10.5 24.75 10.5H34.845C36.0896 12.3931 36.7519 14.6095 36.75 16.875Z" fill="#FB9649"/>
<path d="M45.75 35.25V37.5C45.75 38.4946 45.3549 39.4484 44.6516 40.1517C43.9484 40.8549 42.9946 41.25 42 41.25H6C5.00544 41.25 4.05161 40.8549 3.34835 40.1517C2.64509 39.4484 2.25 38.4946 2.25 37.5V35.25C2.25 34.8522 2.40804 34.4706 2.68934 34.1893C2.97064 33.908 3.35218 33.75 3.75 33.75H44.25C44.6478 33.75 45.0294 33.908 45.3107 34.1893C45.592 34.4706 45.75 34.8522 45.75 35.25Z" fill="#7ACCBE"/>
<path d="M37.6575 33.75C36.6863 36.497 35.2139 39.0401 33.315 41.25H6C5.00544 41.25 4.05161 40.8549 3.34835 40.1517C2.64509 39.4484 2.25 38.4946 2.25 37.5V35.25C2.25 34.8522 2.40804 34.4706 2.68934 34.1893C2.97064 33.908 3.35218 33.75 3.75 33.75H37.6575Z" fill="#61C3B6"/>
<path d="M28.4996 33.93L28.0346 35.7975C27.9117 36.2876 27.6273 36.7222 27.2273 37.031C26.8273 37.3399 26.3349 37.505 25.8296 37.5H22.1696C21.6681 37.5 21.181 37.3325 20.7856 37.024C20.3902 36.7156 20.1091 36.2839 19.9871 35.7975L19.4996 33.93C19.4715 33.8193 19.4691 33.7036 19.4925 33.5918C19.5159 33.4801 19.5645 33.3751 19.6346 33.285C19.7075 33.1925 19.8012 33.1185 19.9081 33.069C20.0149 33.0195 20.1319 32.9959 20.2496 33H27.7496C27.8635 32.9994 27.9761 33.0247 28.0787 33.0741C28.1814 33.1235 28.2715 33.1956 28.3421 33.285C28.4161 33.3732 28.4688 33.4772 28.4961 33.5891C28.5234 33.7009 28.5246 33.8176 28.4996 33.93Z" fill="white"/>
<path d="M44.25 33H43.5V8.25C43.5 7.65326 43.2629 7.08097 42.841 6.65901C42.419 6.23705 41.8467 6 41.25 6H6.75C6.15326 6 5.58097 6.23705 5.15901 6.65901C4.73705 7.08097 4.5 7.65326 4.5 8.25V33H3.75C3.15326 33 2.58097 33.2371 2.15901 33.659C1.73705 34.081 1.5 34.6533 1.5 35.25V36.75C1.5 38.1424 2.05312 39.4777 3.03769 40.4623C4.02226 41.4469 5.35761 42 6.75 42H41.25C42.6424 42 43.9777 41.4469 44.9623 40.4623C45.9469 39.4777 46.5 38.1424 46.5 36.75V35.25C46.5 34.6533 46.2629 34.081 45.841 33.659C45.419 33.2371 44.8467 33 44.25 33ZM6 8.25C6 8.05109 6.07902 7.86032 6.21967 7.71967C6.36032 7.57902 6.55109 7.5 6.75 7.5H41.25C41.4489 7.5 41.6397 7.57902 41.7803 7.71967C41.921 7.86032 42 8.05109 42 8.25V33H6V8.25ZM45 36.75C45 37.7446 44.6049 38.6984 43.9016 39.4016C43.1984 40.1049 42.2446 40.5 41.25 40.5H6.75C5.75544 40.5 4.80161 40.1049 4.09835 39.4016C3.39509 38.6984 3 37.7446 3 36.75V35.25C3 35.0511 3.07902 34.8603 3.21967 34.7197C3.36032 34.579 3.55109 34.5 3.75 34.5H44.25C44.4489 34.5 44.6397 34.579 44.7803 34.7197C44.921 34.8603 45 35.0511 45 35.25V36.75Z" fill="#4E5B5F"/>
<path d="M16.665 20.0925C17.2534 19.5972 17.6752 18.933 17.8734 18.1899C18.0715 17.4468 18.0364 16.6607 17.7728 15.9383C17.5092 15.2158 17.0299 14.5918 16.3997 14.151C15.7695 13.7101 15.0191 13.4736 14.25 13.4736C13.4809 13.4736 12.7305 13.7101 12.1003 14.151C11.4701 14.5918 10.9908 15.2158 10.7272 15.9383C10.4636 16.6607 10.4285 17.4468 10.6266 18.1899C10.8248 18.933 11.2466 19.5972 11.835 20.0925C10.9813 20.5348 10.2654 21.203 9.76546 22.0243C9.26553 22.8456 9.00075 23.7885 9 24.75V27.75C9 28.3467 9.23705 28.919 9.65901 29.341C10.081 29.7629 10.6533 30 11.25 30H17.25C17.8467 30 18.419 29.7629 18.841 29.341C19.2629 28.919 19.5 28.3467 19.5 27.75V24.75C19.4993 23.7885 19.2345 22.8456 18.7345 22.0243C18.2346 21.203 17.5187 20.5348 16.665 20.0925ZM12 17.25C12 16.805 12.132 16.37 12.3792 15.9999C12.6264 15.6299 12.9778 15.3415 13.389 15.1712C13.8001 15.001 14.2525 14.9564 14.689 15.0432C15.1254 15.13 15.5263 15.3443 15.841 15.659C16.1557 15.9737 16.37 16.3746 16.4568 16.811C16.5436 17.2475 16.499 17.6999 16.3287 18.111C16.1584 18.5222 15.87 18.8736 15.5 19.1208C15.13 19.368 14.695 19.5 14.25 19.5C13.6533 19.5 13.081 19.2629 12.659 18.841C12.2371 18.419 12 17.8467 12 17.25ZM18 27.75C18 27.9489 17.921 28.1397 17.7803 28.2803C17.6397 28.421 17.4489 28.5 17.25 28.5H11.25C11.0511 28.5 10.8603 28.421 10.7197 28.2803C10.579 28.1397 10.5 27.9489 10.5 27.75V24.75C10.5 23.7554 10.8951 22.8016 11.5983 22.0983C12.3016 21.3951 13.2554 21 14.25 21C15.2446 21 16.1984 21.3951 16.9017 22.0983C17.6049 22.8016 18 23.7554 18 24.75V27.75Z" fill="#61C3B6"/>
<path d="M30 15.75H27C26.8011 15.75 26.6103 15.671 26.4697 15.5303C26.329 15.3897 26.25 15.1989 26.25 15C26.25 14.8011 26.329 14.6103 26.4697 14.4697C26.6103 14.329 26.8011 14.25 27 14.25H30C30.1989 14.25 30.3897 14.329 30.5303 14.4697C30.671 14.6103 30.75 14.8011 30.75 15C30.75 15.1989 30.671 15.3897 30.5303 15.5303C30.3897 15.671 30.1989 15.75 30 15.75ZM34.5 19.5H27C26.8011 19.5 26.6103 19.421 26.4697 19.2803C26.329 19.1397 26.25 18.9489 26.25 18.75C26.25 18.5511 26.329 18.3603 26.4697 18.2197C26.6103 18.079 26.8011 18 27 18H34.5C34.6989 18 34.8897 18.079 35.0303 18.2197C35.171 18.3603 35.25 18.5511 35.25 18.75C35.25 18.9489 35.171 19.1397 35.0303 19.2803C34.8897 19.421 34.6989 19.5 34.5 19.5ZM34.5 23.25H27C26.8011 23.25 26.6103 23.171 26.4697 23.0303C26.329 22.8897 26.25 22.6989 26.25 22.5C26.25 22.3011 26.329 22.1103 26.4697 21.9697C26.6103 21.829 26.8011 21.75 27 21.75H34.5C34.6989 21.75 34.8897 21.829 35.0303 21.9697C35.171 22.1103 35.25 22.3011 35.25 22.5C35.25 22.6989 35.171 22.8897 35.0303 23.0303C34.8897 23.171 34.6989 23.25 34.5 23.25Z" fill="white"/>
</svg>
