<svg width="48" height="48" viewBox="0 0 48 48" fill="none" xmlns="http://www.w3.org/2000/svg">
<rect width="48" height="48" fill="white"/>
<path d="M6.75 6.75H41.25C41.6478 6.75 42.0294 6.90804 42.3107 7.18934C42.592 7.47064 42.75 7.85218 42.75 8.25V33.75H5.25V8.25C5.25 7.85218 5.40804 7.47064 5.68934 7.18934C5.97064 6.90804 6.35218 6.75 6.75 6.75Z" fill="white"/>
<path d="M45.75 35.25V37.5C45.75 38.4946 45.3549 39.4484 44.6516 40.1517C43.9484 40.8549 42.9946 41.25 42 41.25H6C5.00544 41.25 4.05161 40.8549 3.34835 40.1517C2.64509 39.4484 2.25 38.4946 2.25 37.5V35.25C2.25 34.8522 2.40804 34.4706 2.68934 34.1893C2.97064 33.908 3.35218 33.75 3.75 33.75H44.25C44.6478 33.75 45.0294 33.908 45.3107 34.1893C45.592 34.4706 45.75 34.8522 45.75 35.25Z" fill="#7ACCBE"/>
<path d="M37.6575 33.75C36.6863 36.497 35.2139 39.0401 33.315 41.25H6C5.00544 41.25 4.05161 40.8549 3.34835 40.1517C2.64509 39.4484 2.25 38.4946 2.25 37.5V35.25C2.25 34.8522 2.40804 34.4706 2.68934 34.1893C2.97064 33.908 3.35218 33.75 3.75 33.75H37.6575Z" fill="#61C3B6"/>
<path d="M28.4996 33.93L28.0346 35.7975C27.9117 36.2876 27.6273 36.7222 27.2273 37.031C26.8273 37.3399 26.3349 37.505 25.8296 37.5H22.1696C21.6681 37.5 21.181 37.3325 20.7856 37.024C20.3902 36.7156 20.1091 36.2839 19.9871 35.7975L19.4996 33.93C19.4715 33.8193 19.4691 33.7036 19.4925 33.5918C19.5159 33.4801 19.5645 33.3751 19.6346 33.285C19.7075 33.1925 19.8012 33.1185 19.9081 33.069C20.0149 33.0195 20.1319 32.9959 20.2496 33H27.7496C27.8635 32.9994 27.9761 33.0247 28.0787 33.0741C28.1814 33.1235 28.2715 33.1956 28.3421 33.285C28.4161 33.3732 28.4688 33.4772 28.4961 33.5891C28.5234 33.7009 28.5246 33.8176 28.4996 33.93Z" fill="white"/>
<path d="M44.25 33H43.5V8.25C43.5 7.65326 43.2629 7.08097 42.841 6.65901C42.419 6.23705 41.8467 6 41.25 6H6.75C6.15326 6 5.58097 6.23705 5.15901 6.65901C4.73705 7.08097 4.5 7.65326 4.5 8.25V33H3.75C3.15326 33 2.58097 33.2371 2.15901 33.659C1.73705 34.081 1.5 34.6533 1.5 35.25V36.75C1.5 38.1424 2.05312 39.4777 3.03769 40.4623C4.02226 41.4469 5.35761 42 6.75 42H41.25C42.6424 42 43.9777 41.4469 44.9623 40.4623C45.9469 39.4777 46.5 38.1424 46.5 36.75V35.25C46.5 34.6533 46.2629 34.081 45.841 33.659C45.419 33.2371 44.8467 33 44.25 33ZM6 8.25C6 8.05109 6.07902 7.86032 6.21967 7.71967C6.36032 7.57902 6.55109 7.5 6.75 7.5H41.25C41.4489 7.5 41.6397 7.57902 41.7803 7.71967C41.921 7.86032 42 8.05109 42 8.25V33H6V8.25ZM45 36.75C45 37.7446 44.6049 38.6984 43.9016 39.4016C43.1984 40.1049 42.2446 40.5 41.25 40.5H6.75C5.75544 40.5 4.80161 40.1049 4.09835 39.4016C3.39509 38.6984 3 37.7446 3 36.75V35.25C3 35.0511 3.07902 34.8603 3.21967 34.7197C3.36032 34.579 3.55109 34.5 3.75 34.5H44.25C44.4489 34.5 44.6397 34.579 44.7803 34.7197C44.921 34.8603 45 35.0511 45 35.25V36.75Z" fill="#4E5B5F"/>
<path d="M24 30.75C28.9706 30.75 33 26.7206 33 21.75C33 16.7794 28.9706 12.75 24 12.75C19.0294 12.75 15 16.7794 15 21.75C15 26.7206 19.0294 30.75 24 30.75Z" fill="#E6E6E6"/>
<path d="M33 20.25C33 22.03 32.4722 23.7701 31.4832 25.2501C30.4943 26.7302 29.0887 27.8837 27.4442 28.5649C25.7996 29.2461 23.99 29.4243 22.2442 29.0771C20.4984 28.7298 18.8947 27.8726 17.636 26.614C16.3774 25.3553 15.5202 23.7516 15.1729 22.0058C14.8257 20.26 15.0039 18.4504 15.6851 16.8058C16.3663 15.1613 17.5198 13.7557 18.9999 12.7668C20.4799 11.7778 22.22 11.25 24 11.25C26.387 11.25 28.6761 12.1982 30.364 13.886C32.0518 15.5739 33 17.8631 33 20.25Z" fill="#FB9649"/>
<path d="M30 18C30 20.387 29.0518 22.6762 27.364 24.364C25.6761 26.0518 23.387 27 21 27C19.7049 27.0006 18.4253 26.7191 17.25 26.175C15.9063 24.6252 15.1323 22.6629 15.0562 20.6131C14.9802 18.5633 15.6066 16.5491 16.8317 14.9039C18.0568 13.2588 19.8071 12.0815 21.7927 11.567C23.7784 11.0525 25.8802 11.2318 27.75 12.075C29.2002 13.7079 30.0008 15.8161 30 18Z" fill="#FB9649"/>
<path d="M27.3375 19.5824L21.3375 16.5824C21.2233 16.5249 21.0963 16.4975 20.9686 16.5029C20.8409 16.5082 20.7166 16.5461 20.6077 16.613C20.4987 16.6799 20.4086 16.7735 20.346 16.885C20.2835 16.9965 20.2504 17.1221 20.25 17.2499V23.2499C20.2497 23.3774 20.282 23.5028 20.3437 23.6143C20.4053 23.7259 20.4944 23.8199 20.6025 23.8874C20.7219 23.9614 20.8596 24.0004 21 23.9999C21.1174 23.9992 21.233 23.971 21.3375 23.9174L27.3375 20.9174C27.4604 20.8545 27.5635 20.7589 27.6354 20.6411C27.7074 20.5233 27.7455 20.388 27.7455 20.2499C27.7455 20.1119 27.7074 19.9765 27.6354 19.8588C27.5635 19.741 27.4604 19.6454 27.3375 19.5824Z" fill="white"/>
</svg>
